<svg width="20" height="20" viewBox="0 0 20 20" fill="none" xmlns="http://www.w3.org/2000/svg">
<path fill-rule="evenodd" clip-rule="evenodd" d="M2.74284 10.8799C2.98854 11.5342 3.36826 12.1659 3.85965 12.7525L9.48837 19.4308C9.62239 19.5888 9.80108 19.679 10.0021 19.679C10.2031 19.679 10.3818 19.5888 10.5158 19.4308L16.1445 12.7525C16.6583 12.1659 17.038 11.5342 17.2614 10.8799C18.1548 8.51092 17.8198 5.8035 16.3679 3.68269C14.8937 1.53932 12.5708 0.320984 10.0021 0.320984C7.43344 0.320984 5.11048 1.53932 3.63629 3.68269C2.18444 5.8035 1.8494 8.51092 2.74284 10.8799ZM4.2547 4.10703C5.5896 2.16664 7.68171 1.07098 10.0021 1.07098C12.3224 1.07098 14.4145 2.16659 15.7494 4.1069C17.0648 6.02882 17.3651 8.47942 16.5596 10.6152L16.5554 10.6264L16.5516 10.6376C16.3644 11.1858 16.0397 11.7339 15.5803 12.2584L15.5757 12.2638L10.0021 18.8766L4.43458 12.2709C4.43435 12.2706 4.43412 12.2704 4.43389 12.2701C3.99029 11.7404 3.65719 11.1814 3.44497 10.6162L3.44459 10.6152C2.6391 8.47947 2.93934 6.02894 4.2547 4.10703Z" fill="#042D48"/>
<path fill-rule="evenodd" clip-rule="evenodd" d="M10 9.88898C10.8284 9.88898 11.5 9.2174 11.5 8.38898C11.5 7.56055 10.8284 6.88898 10 6.88898C9.17157 6.88898 8.5 7.56055 8.5 8.38898C8.5 9.2174 9.17157 9.88898 10 9.88898ZM10 10.639C11.2426 10.639 12.25 9.63162 12.25 8.38898C12.25 7.14634 11.2426 6.13898 10 6.13898C8.75736 6.13898 7.75 7.14634 7.75 8.38898C7.75 9.63162 8.75736 10.639 10 10.639Z" fill="#042D48"/>
</svg>
