<svg width="40" height="41" viewBox="0 0 40 41" fill="none" xmlns="http://www.w3.org/2000/svg">
<path d="M8.49552 28.8355H5.22773V16.5202C4.0338 17.6366 2.62667 18.4623 1.00635 18.9973V16.0318C1.85915 15.7527 2.78561 15.2255 3.78571 14.4503C4.78582 13.6672 5.47194 12.7563 5.84407 11.7174H8.49552V28.8355Z" fill="#919599"/>
<path d="M16.9085 19.6369C16.0635 19.2802 15.4471 18.7918 15.0595 18.1716C14.6796 17.5436 14.4896 16.8575 14.4896 16.1132C14.4896 14.8418 14.9315 13.7913 15.8154 12.9617C16.7069 12.1322 17.9706 11.7174 19.6065 11.7174C21.2268 11.7174 22.4827 12.1322 23.3743 12.9617C24.2736 13.7913 24.7233 14.8418 24.7233 16.1132C24.7233 16.904 24.5178 17.6095 24.1069 18.2297C23.696 18.8422 23.1185 19.3112 22.3742 19.6369C23.32 20.0167 24.0372 20.5711 24.5256 21.2998C25.0218 22.0286 25.2699 22.8698 25.2699 23.8233C25.2699 25.3972 24.7659 26.6764 23.7581 27.661C22.758 28.6456 21.4245 29.1379 19.7576 29.1379C18.2071 29.1379 16.9163 28.7308 15.8851 27.9168C14.668 26.9555 14.0594 25.6375 14.0594 23.9629C14.0594 23.0403 14.2881 22.1953 14.7455 21.4277C15.2029 20.6525 15.9239 20.0555 16.9085 19.6369ZM17.583 16.3458C17.583 16.997 17.7652 17.5048 18.1296 17.8692C18.5017 18.2336 18.994 18.4158 19.6065 18.4158C20.2267 18.4158 20.7229 18.2336 21.095 17.8692C21.4671 17.4971 21.6532 16.9854 21.6532 16.3342C21.6532 15.7217 21.4671 15.2333 21.095 14.8689C20.7306 14.4968 20.2461 14.3107 19.6413 14.3107C19.0134 14.3107 18.5133 14.4968 18.1412 14.8689C17.7691 15.241 17.583 15.7333 17.583 16.3458ZM17.2806 23.6489C17.2806 24.5482 17.5093 25.2499 17.9668 25.7538C18.4319 26.2577 19.0095 26.5097 19.6995 26.5097C20.374 26.5097 20.9322 26.2693 21.3741 25.7887C21.816 25.3002 22.037 24.5986 22.037 23.6838C22.037 22.8853 21.8121 22.2457 21.3625 21.765C20.9128 21.2766 20.343 21.0324 19.653 21.0324C18.8544 21.0324 18.2575 21.3076 17.8621 21.858C17.4745 22.4085 17.2806 23.0054 17.2806 23.6489Z" fill="#919599"/>
<path d="M32.5199 26.3818V21.9511H28.0543V18.8926H32.5199V14.4619H35.497V18.8926H39.9742V21.9511H35.497V26.3818H32.5199Z" fill="#919599"/>
</svg>
