<svg width="50" height="50" viewBox="0 0 50 50" fill="none" xmlns="http://www.w3.org/2000/svg">
<g filter="url(#filter0_d)">
<rect x="5" y="5" width="40" height="40" rx="20" fill="white"/>
<path d="M26.7033 29.1345C26.7033 29.1345 26.5994 30.2867 25.0445 30.2867C23.4895 30.2867 23.4166 29.1345 23.4166 29.1345C23.408 28.6646 23.4037 28.3784 23.4037 28.2759C23.4037 27.2166 23.5798 26.3452 23.9321 25.6618C24.2844 24.9783 24.989 24.2094 26.046 23.3551C27.1029 22.5008 27.7344 21.9412 27.9406 21.6764C28.2586 21.2578 28.4175 20.7965 28.4175 20.2924C28.4175 19.5919 28.134 18.9939 27.5669 18.4984C27.0083 17.9943 26.2522 17.7423 25.2984 17.7423C24.379 17.7423 23.6099 18.0029 22.9912 18.524C22.3726 19.0451 21.9472 19.8396 21.7152 20.9075C21.7152 20.9075 21.3556 21.9933 19.9231 21.8549C18.4906 21.7165 18.3898 20.4975 18.3898 20.4975C18.4844 18.9683 19.1374 17.6697 20.349 16.6018C21.5691 15.5339 23.1674 15 25.1437 15C27.2232 15 28.8773 15.5425 30.106 16.6275C31.3348 17.7039 31.9492 18.9597 31.9492 20.3949C31.9492 21.1895 31.7214 21.9412 31.266 22.6503C30.8192 23.3594 29.8568 24.3248 28.3789 25.5464C27.6141 26.1786 27.1372 26.6869 26.9482 27.0714C26.7677 27.4558 26.6861 28.1435 26.7033 29.1345Z" fill="#042D48"/>
<ellipse cx="25.1695" cy="33.2721" rx="1.74127" ry="1.72789" fill="#042D48"/>
</g>
<defs>
<filter id="filter0_d" x="0" y="0" width="50" height="50" filterUnits="userSpaceOnUse" color-interpolation-filters="sRGB">
<feFlood flood-opacity="0" result="BackgroundImageFix"/>
<feColorMatrix in="SourceAlpha" type="matrix" values="0 0 0 0 0 0 0 0 0 0 0 0 0 0 0 0 0 0 127 0"/>
<feOffset/>
<feGaussianBlur stdDeviation="2.5"/>
<feColorMatrix type="matrix" values="0 0 0 0 0.137255 0 0 0 0 0.137255 0 0 0 0 0.137255 0 0 0 0.25 0"/>
<feBlend mode="normal" in2="BackgroundImageFix" result="effect1_dropShadow"/>
<feBlend mode="normal" in="SourceGraphic" in2="effect1_dropShadow" result="shape"/>
</filter>
</defs>
</svg>
