<svg width="53" height="51" viewBox="0 0 53 51" fill="none" xmlns="http://www.w3.org/2000/svg">
<path fill-rule="evenodd" clip-rule="evenodd" d="M21.1549 30.212C20.6921 29.9618 20.5864 29.7296 19.9558 29.5757C18.8087 29.2956 17.5639 29.8618 17.0974 31.0432C16.4984 32.5601 17.5114 34.4306 19.4157 34.406C20.6111 34.3906 21.6906 33.4469 21.8109 32.2096C21.8818 31.481 21.5615 31.7197 22.1735 31.1539L24.7041 28.8642C25.5526 28.1036 26.1131 28.3161 26.1743 29.435C26.1962 29.8351 26.1919 30.167 26.217 30.5556C26.2647 31.2942 26.283 32.0863 26.3009 32.8471C26.3202 33.6735 26.3605 33.2754 25.8689 33.8172C25.0052 34.7691 25.0541 36.2012 25.8738 37.1038C27.861 39.2921 31.2425 36.7164 29.8096 34.2197C29.1898 33.1397 28.2904 33.1426 27.6875 32.9652C27.7448 32.3469 27.6521 31.4415 27.6271 30.79C27.5993 30.0647 27.5727 29.3536 27.5521 28.6356C27.5304 27.879 27.7582 27.9935 28.7729 26.9623C30.4591 25.2486 31.7695 23.8765 33.2438 21.8568C33.8874 20.9751 35.6015 18.3505 35.3621 17.3039L27.4478 24.465L27.0166 13.7802C26.1116 14.2963 25.402 17.4363 25.2201 18.4806C24.9479 20.0433 24.8259 21.5198 24.7469 23.038L24.6914 26.3354C24.7029 26.9346 24.7869 26.8781 24.3471 27.284C23.7647 27.8216 21.4746 29.8378 21.1549 30.212Z" fill="white"/>
<g filter="url(#filter0_i)">
<rect x="26.2441" y="0.133789" width="1.04464" height="5.6353" rx="0.522322" fill="#2353B4"/>
</g>
<g filter="url(#filter1_i)">
<rect x="26.2441" y="45.0869" width="1.04464" height="5.6353" rx="0.522322" fill="#2353B4"/>
</g>
<g filter="url(#filter2_i)">
<rect x="46.4316" y="26.2822" width="1.04464" height="5.6353" rx="0.522322" transform="rotate(-90 46.4316 26.2822)" fill="#2353B4"/>
</g>
<g filter="url(#filter3_i)">
<rect x="0.863281" y="26.2822" width="1.04464" height="5.6353" rx="0.522322" transform="rotate(-90 0.863281 26.2822)" fill="#2353B4"/>
</g>
<g filter="url(#filter4_i)">
<rect x="7.30469" y="8.0752" width="1.04464" height="5.6353" rx="0.522322" transform="rotate(-49.6046 7.30469 8.0752)" fill="#2353B4"/>
</g>
<g filter="url(#filter5_i)">
<rect x="40.5371" y="39.9277" width="1.04464" height="5.6353" rx="0.522322" transform="rotate(-41.1376 40.5371 39.9277)" fill="#2353B4"/>
</g>
<g filter="url(#filter6_i)">
<rect x="12.2734" y="39.4355" width="1.04464" height="5.6353" rx="0.522322" transform="rotate(44.7719 12.2734 39.4355)" fill="#2353B4"/>
</g>
<g filter="url(#filter7_i)">
<rect x="44.5039" y="6.99023" width="1.04464" height="5.6353" rx="0.522322" transform="rotate(44.7719 44.5039 6.99023)" fill="#2353B4"/>
</g>
<g filter="url(#filter8_d)">
<rect x="26.668" y="11.2148" width="0.41592" height="1.84739" rx="0.20796" fill="white"/>
</g>
<g filter="url(#filter9_d)">
<rect x="26.668" y="7.22852" width="0.41592" height="1.84739" rx="0.20796" fill="white"/>
</g>
<g filter="url(#filter10_d)">
<path d="M31.0145 0.680526C30.8849 0.669275 30.7925 0.547125 30.8201 0.419979C30.841 0.323747 30.9257 0.254171 31.0241 0.255081C31.6323 0.260702 32.0152 0.354121 32.5091 0.576522C32.5986 0.616866 32.6464 0.715082 32.6256 0.811097C32.598 0.938477 32.463 1.01147 32.3402 0.96787C32.1547 0.902042 31.8935 0.815262 31.6908 0.771294C31.4875 0.727187 31.2116 0.697638 31.0145 0.680526Z" fill="white"/>
</g>
<g filter="url(#filter11_d)">
<path d="M35.902 2.2685C35.7774 2.23109 35.7119 2.0927 35.7648 1.97384C35.8048 1.88387 35.9019 1.833 35.9981 1.85394C36.5924 1.9833 36.9483 2.15273 37.3865 2.47104C37.466 2.52878 37.4928 2.63467 37.4528 2.72443C37.3998 2.84352 37.2528 2.8875 37.1415 2.8198C36.9733 2.71758 36.7352 2.57943 36.5457 2.49511C36.3557 2.41052 36.0915 2.3254 35.902 2.2685Z" fill="white"/>
</g>
<g filter="url(#filter12_d)">
<path d="M40.55 4.6224C40.4383 4.55569 40.4086 4.40549 40.4889 4.30314C40.5497 4.22568 40.6563 4.20005 40.7444 4.24386C41.2892 4.51445 41.5929 4.76565 41.9401 5.18133C42.003 5.25674 42.0032 5.36597 41.9425 5.44326C41.862 5.5458 41.7088 5.55255 41.6173 5.45969C41.4792 5.31951 41.282 5.12739 41.1189 4.99935C40.9552 4.8709 40.7199 4.72386 40.55 4.6224Z" fill="white"/>
</g>
<g filter="url(#filter13_d)">
<rect x="36.9365" y="15.0291" width="0.41592" height="1.84739" rx="0.20796" transform="rotate(43.5434 36.9365 15.0291)" fill="white"/>
</g>
<g filter="url(#filter14_d)">
<rect x="39.6826" y="12.1384" width="0.41592" height="1.84739" rx="0.20796" transform="rotate(43.5434 39.6826 12.1384)" fill="white"/>
</g>
<defs>
<filter id="filter0_i" x="26.2441" y="0.133789" width="1.14464" height="5.7353" filterUnits="userSpaceOnUse" color-interpolation-filters="sRGB">
<feFlood flood-opacity="0" result="BackgroundImageFix"/>
<feBlend mode="normal" in="SourceGraphic" in2="BackgroundImageFix" result="shape"/>
<feColorMatrix in="SourceAlpha" type="matrix" values="0 0 0 0 0 0 0 0 0 0 0 0 0 0 0 0 0 0 127 0" result="hardAlpha"/>
<feOffset dx="0.1" dy="0.1"/>
<feGaussianBlur stdDeviation="0.25"/>
<feComposite in2="hardAlpha" operator="arithmetic" k2="-1" k3="1"/>
<feColorMatrix type="matrix" values="0 0 0 0 0 0 0 0 0 0 0 0 0 0 0 0 0 0 0.25 0"/>
<feBlend mode="normal" in2="shape" result="effect1_innerShadow"/>
</filter>
<filter id="filter1_i" x="26.2441" y="45.0869" width="1.14464" height="5.7353" filterUnits="userSpaceOnUse" color-interpolation-filters="sRGB">
<feFlood flood-opacity="0" result="BackgroundImageFix"/>
<feBlend mode="normal" in="SourceGraphic" in2="BackgroundImageFix" result="shape"/>
<feColorMatrix in="SourceAlpha" type="matrix" values="0 0 0 0 0 0 0 0 0 0 0 0 0 0 0 0 0 0 127 0" result="hardAlpha"/>
<feOffset dx="0.1" dy="0.1"/>
<feGaussianBlur stdDeviation="0.25"/>
<feComposite in2="hardAlpha" operator="arithmetic" k2="-1" k3="1"/>
<feColorMatrix type="matrix" values="0 0 0 0 0 0 0 0 0 0 0 0 0 0 0 0 0 0 0.25 0"/>
<feBlend mode="normal" in2="shape" result="effect1_innerShadow"/>
</filter>
<filter id="filter2_i" x="46.4316" y="25.2376" width="5.7353" height="1.14464" filterUnits="userSpaceOnUse" color-interpolation-filters="sRGB">
<feFlood flood-opacity="0" result="BackgroundImageFix"/>
<feBlend mode="normal" in="SourceGraphic" in2="BackgroundImageFix" result="shape"/>
<feColorMatrix in="SourceAlpha" type="matrix" values="0 0 0 0 0 0 0 0 0 0 0 0 0 0 0 0 0 0 127 0" result="hardAlpha"/>
<feOffset dx="0.1" dy="0.1"/>
<feGaussianBlur stdDeviation="0.25"/>
<feComposite in2="hardAlpha" operator="arithmetic" k2="-1" k3="1"/>
<feColorMatrix type="matrix" values="0 0 0 0 0 0 0 0 0 0 0 0 0 0 0 0 0 0 0.25 0"/>
<feBlend mode="normal" in2="shape" result="effect1_innerShadow"/>
</filter>
<filter id="filter3_i" x="0.863281" y="25.2376" width="5.7353" height="1.14464" filterUnits="userSpaceOnUse" color-interpolation-filters="sRGB">
<feFlood flood-opacity="0" result="BackgroundImageFix"/>
<feBlend mode="normal" in="SourceGraphic" in2="BackgroundImageFix" result="shape"/>
<feColorMatrix in="SourceAlpha" type="matrix" values="0 0 0 0 0 0 0 0 0 0 0 0 0 0 0 0 0 0 127 0" result="hardAlpha"/>
<feOffset dx="0.1" dy="0.1"/>
<feGaussianBlur stdDeviation="0.25"/>
<feComposite in2="hardAlpha" operator="arithmetic" k2="-1" k3="1"/>
<feColorMatrix type="matrix" values="0 0 0 0 0 0 0 0 0 0 0 0 0 0 0 0 0 0 0.25 0"/>
<feBlend mode="normal" in2="shape" result="effect1_innerShadow"/>
</filter>
<filter id="filter4_i" x="7.51865" y="7.49356" width="4.64086" height="4.11968" filterUnits="userSpaceOnUse" color-interpolation-filters="sRGB">
<feFlood flood-opacity="0" result="BackgroundImageFix"/>
<feBlend mode="normal" in="SourceGraphic" in2="BackgroundImageFix" result="shape"/>
<feColorMatrix in="SourceAlpha" type="matrix" values="0 0 0 0 0 0 0 0 0 0 0 0 0 0 0 0 0 0 127 0" result="hardAlpha"/>
<feOffset dx="0.1" dy="0.1"/>
<feGaussianBlur stdDeviation="0.25"/>
<feComposite in2="hardAlpha" operator="arithmetic" k2="-1" k3="1"/>
<feColorMatrix type="matrix" values="0 0 0 0 0 0 0 0 0 0 0 0 0 0 0 0 0 0 0.25 0"/>
<feBlend mode="normal" in2="shape" result="effect1_innerShadow"/>
</filter>
<filter id="filter5_i" x="40.7518" y="39.4552" width="4.16471" height="4.60203" filterUnits="userSpaceOnUse" color-interpolation-filters="sRGB">
<feFlood flood-opacity="0" result="BackgroundImageFix"/>
<feBlend mode="normal" in="SourceGraphic" in2="BackgroundImageFix" result="shape"/>
<feColorMatrix in="SourceAlpha" type="matrix" values="0 0 0 0 0 0 0 0 0 0 0 0 0 0 0 0 0 0 127 0" result="hardAlpha"/>
<feOffset dx="0.1" dy="0.1"/>
<feGaussianBlur stdDeviation="0.25"/>
<feComposite in2="hardAlpha" operator="arithmetic" k2="-1" k3="1"/>
<feColorMatrix type="matrix" values="0 0 0 0 0 0 0 0 0 0 0 0 0 0 0 0 0 0 0.25 0"/>
<feBlend mode="normal" in2="shape" result="effect1_innerShadow"/>
</filter>
<filter id="filter6_i" x="8.52094" y="39.6519" width="4.37778" height="4.40363" filterUnits="userSpaceOnUse" color-interpolation-filters="sRGB">
<feFlood flood-opacity="0" result="BackgroundImageFix"/>
<feBlend mode="normal" in="SourceGraphic" in2="BackgroundImageFix" result="shape"/>
<feColorMatrix in="SourceAlpha" type="matrix" values="0 0 0 0 0 0 0 0 0 0 0 0 0 0 0 0 0 0 127 0" result="hardAlpha"/>
<feOffset dx="0.1" dy="0.1"/>
<feGaussianBlur stdDeviation="0.25"/>
<feComposite in2="hardAlpha" operator="arithmetic" k2="-1" k3="1"/>
<feColorMatrix type="matrix" values="0 0 0 0 0 0 0 0 0 0 0 0 0 0 0 0 0 0 0.25 0"/>
<feBlend mode="normal" in2="shape" result="effect1_innerShadow"/>
</filter>
<filter id="filter7_i" x="40.7514" y="7.20657" width="4.37778" height="4.40363" filterUnits="userSpaceOnUse" color-interpolation-filters="sRGB">
<feFlood flood-opacity="0" result="BackgroundImageFix"/>
<feBlend mode="normal" in="SourceGraphic" in2="BackgroundImageFix" result="shape"/>
<feColorMatrix in="SourceAlpha" type="matrix" values="0 0 0 0 0 0 0 0 0 0 0 0 0 0 0 0 0 0 127 0" result="hardAlpha"/>
<feOffset dx="0.1" dy="0.1"/>
<feGaussianBlur stdDeviation="0.25"/>
<feComposite in2="hardAlpha" operator="arithmetic" k2="-1" k3="1"/>
<feColorMatrix type="matrix" values="0 0 0 0 0 0 0 0 0 0 0 0 0 0 0 0 0 0 0.25 0"/>
<feBlend mode="normal" in2="shape" result="effect1_innerShadow"/>
</filter>
<filter id="filter8_d" x="26.668" y="11.2148" width="1.41592" height="2.84739" filterUnits="userSpaceOnUse" color-interpolation-filters="sRGB">
<feFlood flood-opacity="0" result="BackgroundImageFix"/>
<feColorMatrix in="SourceAlpha" type="matrix" values="0 0 0 0 0 0 0 0 0 0 0 0 0 0 0 0 0 0 127 0"/>
<feOffset dx="0.5" dy="0.5"/>
<feGaussianBlur stdDeviation="0.25"/>
<feColorMatrix type="matrix" values="0 0 0 0 0 0 0 0 0 0 0 0 0 0 0 0 0 0 0.25 0"/>
<feBlend mode="normal" in2="BackgroundImageFix" result="effect1_dropShadow"/>
<feBlend mode="normal" in="SourceGraphic" in2="effect1_dropShadow" result="shape"/>
</filter>
<filter id="filter9_d" x="26.668" y="7.22852" width="1.41592" height="2.84739" filterUnits="userSpaceOnUse" color-interpolation-filters="sRGB">
<feFlood flood-opacity="0" result="BackgroundImageFix"/>
<feColorMatrix in="SourceAlpha" type="matrix" values="0 0 0 0 0 0 0 0 0 0 0 0 0 0 0 0 0 0 127 0"/>
<feOffset dx="0.5" dy="0.5"/>
<feGaussianBlur stdDeviation="0.25"/>
<feColorMatrix type="matrix" values="0 0 0 0 0 0 0 0 0 0 0 0 0 0 0 0 0 0 0.25 0"/>
<feBlend mode="normal" in2="BackgroundImageFix" result="effect1_dropShadow"/>
<feBlend mode="normal" in="SourceGraphic" in2="effect1_dropShadow" result="shape"/>
</filter>
<filter id="filter10_d" x="30.8152" y="0.255066" width="2.81524" height="1.72547" filterUnits="userSpaceOnUse" color-interpolation-filters="sRGB">
<feFlood flood-opacity="0" result="BackgroundImageFix"/>
<feColorMatrix in="SourceAlpha" type="matrix" values="0 0 0 0 0 0 0 0 0 0 0 0 0 0 0 0 0 0 127 0"/>
<feOffset dx="0.5" dy="0.5"/>
<feGaussianBlur stdDeviation="0.25"/>
<feColorMatrix type="matrix" values="0 0 0 0 0 0 0 0 0 0 0 0 0 0 0 0 0 0 0.25 0"/>
<feBlend mode="normal" in2="BackgroundImageFix" result="effect1_dropShadow"/>
<feBlend mode="normal" in="SourceGraphic" in2="effect1_dropShadow" result="shape"/>
</filter>
<filter id="filter11_d" x="35.7463" y="1.84924" width="2.7248" height="2.00243" filterUnits="userSpaceOnUse" color-interpolation-filters="sRGB">
<feFlood flood-opacity="0" result="BackgroundImageFix"/>
<feColorMatrix in="SourceAlpha" type="matrix" values="0 0 0 0 0 0 0 0 0 0 0 0 0 0 0 0 0 0 127 0"/>
<feOffset dx="0.5" dy="0.5"/>
<feGaussianBlur stdDeviation="0.25"/>
<feColorMatrix type="matrix" values="0 0 0 0 0 0 0 0 0 0 0 0 0 0 0 0 0 0 0.25 0"/>
<feBlend mode="normal" in2="BackgroundImageFix" result="effect1_dropShadow"/>
<feBlend mode="normal" in="SourceGraphic" in2="effect1_dropShadow" result="shape"/>
</filter>
<filter id="filter12_d" x="40.4435" y="4.22253" width="2.54418" height="2.30246" filterUnits="userSpaceOnUse" color-interpolation-filters="sRGB">
<feFlood flood-opacity="0" result="BackgroundImageFix"/>
<feColorMatrix in="SourceAlpha" type="matrix" values="0 0 0 0 0 0 0 0 0 0 0 0 0 0 0 0 0 0 127 0"/>
<feOffset dx="0.5" dy="0.5"/>
<feGaussianBlur stdDeviation="0.25"/>
<feColorMatrix type="matrix" values="0 0 0 0 0 0 0 0 0 0 0 0 0 0 0 0 0 0 0.25 0"/>
<feBlend mode="normal" in2="BackgroundImageFix" result="effect1_dropShadow"/>
<feBlend mode="normal" in="SourceGraphic" in2="effect1_dropShadow" result="shape"/>
</filter>
<filter id="filter13_d" x="35.7499" y="15.1151" width="2.40207" height="2.45353" filterUnits="userSpaceOnUse" color-interpolation-filters="sRGB">
<feFlood flood-opacity="0" result="BackgroundImageFix"/>
<feColorMatrix in="SourceAlpha" type="matrix" values="0 0 0 0 0 0 0 0 0 0 0 0 0 0 0 0 0 0 127 0"/>
<feOffset dx="0.5" dy="0.5"/>
<feGaussianBlur stdDeviation="0.25"/>
<feColorMatrix type="matrix" values="0 0 0 0 0 0 0 0 0 0 0 0 0 0 0 0 0 0 0.25 0"/>
<feBlend mode="normal" in2="BackgroundImageFix" result="effect1_dropShadow"/>
<feBlend mode="normal" in="SourceGraphic" in2="effect1_dropShadow" result="shape"/>
</filter>
<filter id="filter14_d" x="38.496" y="12.2245" width="2.40207" height="2.45353" filterUnits="userSpaceOnUse" color-interpolation-filters="sRGB">
<feFlood flood-opacity="0" result="BackgroundImageFix"/>
<feColorMatrix in="SourceAlpha" type="matrix" values="0 0 0 0 0 0 0 0 0 0 0 0 0 0 0 0 0 0 127 0"/>
<feOffset dx="0.5" dy="0.5"/>
<feGaussianBlur stdDeviation="0.25"/>
<feColorMatrix type="matrix" values="0 0 0 0 0 0 0 0 0 0 0 0 0 0 0 0 0 0 0.25 0"/>
<feBlend mode="normal" in2="BackgroundImageFix" result="effect1_dropShadow"/>
<feBlend mode="normal" in="SourceGraphic" in2="effect1_dropShadow" result="shape"/>
</filter>
</defs>
</svg>
