<svg width="75" height="86" viewBox="0 0 75 86" fill="none" xmlns="http://www.w3.org/2000/svg">
<g filter="url(#filter0_d)">
<path d="M35.314 3.85484C34.1259 4.89926 32.4915 3.03784 33.4708 2.22793C34.8315 0.985542 36.018 0.60101 37.6837 0.601013C41.4089 0.772622 42.617 3.27598 42.8781 5.00053C42.8781 6.18095 43.2215 9.65509 38.7609 10.6833V12.6768H36.2953V9.56046C36.3196 8.97224 36.8982 8.93612 37.6837 8.64389C43.2626 6.56845 38.7609 0.735887 35.314 3.85484Z" fill="white"/>
<g filter="url(#filter1_d)">
<rect x="26.6207" y="35.1659" width="0.820306" height="30.6957" fill="white"/>
</g>
<g filter="url(#filter2_d)">
<rect x="37.196" y="35.4982" width="0.820306" height="20.2258" fill="white"/>
</g>
<g filter="url(#filter3_d)">
<rect x="47.6964" y="35.4982" width="0.82032" height="25.3847" fill="white"/>
</g>
<g filter="url(#filter4_d)">
<path d="M38.9526 18.8856L66.7258 36.6863C66.7258 36.6863 65.9947 42.1828 60.7191 42.0712C54.9732 41.9495 54.9732 36.6863 54.9732 36.6863C54.9732 36.6863 54.9046 42.1084 49.2116 42.1084C43.2478 42.1084 43.4164 36.6863 43.4164 36.6863C43.4164 36.6863 42.6624 42.0712 37.4504 42.0712C31.7636 42.0712 31.7646 36.6863 31.7646 36.6863C31.7646 36.6863 31.3022 42.1713 25.4939 42.1713C20.4024 42.1713 19.9873 36.6863 19.9873 36.6863C19.9873 36.6863 19.6681 42.1713 14.1054 42.1713C8.35651 42.1713 8.35703 36.6863 8.35703 36.6863L35.7637 18.8856H38.9526Z" fill="white"/>
</g>
<rect x="35.9115" y="18.2369" width="3.26687" height="0.64622" rx="0.32311" fill="white"/>
<rect x="36.7176" y="14.1312" width="1.66165" height="4.10536" fill="white"/>
<rect x="35.6642" y="12.2378" width="3.76827" height="1.89492" rx="0.89692" fill="white"/>
<g filter="url(#filter5_dii)">
<path fill-rule="evenodd" clip-rule="evenodd" d="M24.1152 74.8844C24.5159 75.2136 25.0271 75.2054 25.4297 75.3988C25.7479 75.3617 26.2242 75.3859 26.6186 75.3458C27.2103 75.0835 27.6561 75.1524 28.4695 74.2363C28.6189 74.0681 28.518 74.1134 28.6737 73.9987C28.7824 74.1087 28.7547 74.136 28.8323 74.3423C29.0579 74.9389 29.2373 74.9667 29.4095 75.3463C29.7588 75.5804 30.0934 75.9811 30.6401 76.1174C31.0359 76.3082 31.552 76.3648 32.0205 76.3529C33.1522 76.3149 34.2135 75.657 34.7388 74.6915C34.8392 74.5069 34.9061 74.1895 35.0565 74.0763C35.2917 73.8994 35.4707 74.0321 36.173 73.4231C37.7795 72.0301 37.4225 69.6578 35.7806 68.661C35.9422 67.8992 36.0896 67.641 35.8524 66.781C35.3824 65.0763 33.7294 64.3711 32.0409 64.601C31.764 64.2919 31.7378 64.1726 31.4205 63.8933C30.6382 63.205 29.4372 62.9247 28.4195 63.1824C27.9461 63.3022 27.495 63.5209 27.1274 63.8295C27.0105 63.9277 26.8417 64.1211 26.765 64.1726C26.4692 64.3711 25.8881 63.7662 24.5231 64.1895C23.8596 64.3953 23.2164 64.8685 22.9487 65.2579C22.1702 66.3911 22.8303 65.3736 21.2607 66.2033C20.6689 66.5161 20.2663 66.9409 19.9613 67.5571C19.4874 68.5154 19.6775 68.9058 19.8288 69.8765C19.4607 70.3471 18.8995 70.6408 18.7249 71.8131C18.6608 72.2431 18.704 72.76 18.8403 73.1556C19.5048 75.0917 21.8161 75.9358 23.831 74.6951L24.1138 74.8839L24.1152 74.8844Z" fill="#ECECEC"/>
</g>
<g filter="url(#filter6_dii)">
<path fill-rule="evenodd" clip-rule="evenodd" d="M45.216 61.5805C45.4787 61.7964 45.8139 61.791 46.0779 61.9178C46.2866 61.8935 46.5989 61.9094 46.8575 61.8831C47.2455 61.7111 47.5378 61.7562 48.0712 61.1555C48.1691 61.0453 48.103 61.0749 48.2051 60.9997C48.2763 61.0719 48.2582 61.0898 48.3091 61.225C48.457 61.6163 48.5746 61.6345 48.6875 61.8834C48.9165 62.0369 49.136 62.2996 49.4944 62.389C49.754 62.5141 50.0924 62.5512 50.3996 62.5435C51.1416 62.5185 51.8375 62.0871 52.182 61.454C52.2478 61.333 52.2917 61.1249 52.3903 61.0507C52.5446 60.9346 52.6619 61.0216 53.1225 60.6223C54.1759 59.7089 53.9418 58.1534 52.8652 57.4997C52.9711 57.0002 53.0678 56.8309 52.9122 56.267C52.6041 55.1492 51.5201 54.6868 50.413 54.8376C50.2314 54.6349 50.2142 54.5566 50.0062 54.3735C49.4932 53.9222 48.7057 53.7384 48.0384 53.9074C47.728 53.9859 47.4322 54.1293 47.1911 54.3317C47.1145 54.3961 47.0038 54.5229 46.9535 54.5566C46.7595 54.6868 46.3785 54.2902 45.4835 54.5678C45.0484 54.7027 44.6266 55.013 44.4511 55.2683C43.9406 56.0113 44.3735 55.3442 43.3443 55.8882C42.9562 56.0933 42.6922 56.3719 42.4922 56.7759C42.1815 57.4043 42.3061 57.6603 42.4054 58.2967C42.164 58.6054 41.796 58.7979 41.6815 59.5666C41.6395 59.8486 41.6678 60.1875 41.7572 60.4469C42.1929 61.7164 43.7084 62.2699 45.0296 61.4564L45.215 61.5802L45.216 61.5805Z" fill="#ECECEC"/>
</g>
<g filter="url(#filter7_d)">
<rect x="54.6884" y="36.583" width="0.445203" height="11.3886" fill="white"/>
</g>
<g filter="url(#filter8_d)">
<rect x="19.7297" y="36.2107" width="0.525786" height="20.0347" fill="white"/>
</g>
<g filter="url(#filter9_i)">
<path fill-rule="evenodd" clip-rule="evenodd" d="M39.8319 50.0201C38.0542 50.2411 36.0044 51.7172 34.9527 53.2309C33.6375 55.1241 32.98 57.4741 33.4818 60.1166C34.8236 67.1842 43.5573 69.5596 47.8933 63.5913C48.389 62.909 47.8272 63.2199 46.9045 63.2781C40.8236 63.662 36.3206 56.6689 39.7569 50.5884C39.8256 50.4669 40.2058 49.9736 39.8319 50.0201Z" fill="#E8A500"/>
<path d="M39.9141 50.021H38.4666C38.4666 50.021 38.5855 50.0236 38.5855 50.0948C38.5855 50.1661 38.4372 50.4147 38.4372 50.4147L39.9141 50.021Z" fill="#E8A500"/>
</g>
<g filter="url(#filter10_d)">
<path fill-rule="evenodd" clip-rule="evenodd" d="M38.4811 50.0442C36.7034 50.272 34.6536 51.7935 33.602 53.3538C32.2867 55.3052 31.6292 57.7275 32.131 60.4514C33.4728 67.7364 42.2065 70.185 46.5426 64.033C47.0383 63.3296 46.4765 63.6501 45.5537 63.7101C39.4728 64.1059 34.9698 56.8976 38.4061 50.63C38.4748 50.5048 38.8551 49.9963 38.4811 50.0442L38.4811 50.0442Z" fill="#FFC636"/>
</g>
<g filter="url(#filter11_d)">
<path d="M53.0143 51.4534L55.7492 45.6734L55.1521 49.2339L56.4177 48.6533L53.2831 54.8459L54.3584 50.8358L53.0143 51.4534Z" fill="#FFD955"/>
</g>
<g filter="url(#filter12_d)">
<path d="M17.282 61.3027L21.0962 53.2417L20.2635 58.2073L22.0285 57.3976L17.6569 66.0339L19.1566 60.4413L17.282 61.3027Z" fill="#FFD955"/>
</g>
<g filter="url(#filter13_di)">
<path d="M56.4152 48.6552L56.7345 48.7572L53.5076 55.1328L53.2809 54.8485L56.4152 48.6552Z" fill="#FFC601"/>
<path d="M53.011 51.4564L53.2328 51.6357L54.2695 51.1635L54.3556 50.8374L53.011 51.4564Z" fill="#FFC601"/>
<path d="M56.041 45.6911L55.7455 45.6775L55.1469 49.2315L55.471 49.0822L56.041 45.6911Z" fill="#FFC601"/>
</g>
<g filter="url(#filter14_di)">
<path d="M22.0259 57.3967L22.4711 57.539L17.9709 66.4305L17.6547 66.034L22.0259 57.3967Z" fill="#FFC601"/>
<path d="M17.2783 61.3034L17.5876 61.5534L19.0334 60.8948L19.1535 60.4401L17.2783 61.3034Z" fill="#FFC601"/>
<path d="M21.504 53.2628L21.0919 53.2439L20.257 58.2004L20.709 57.9923L21.504 53.2628Z" fill="#FFC601"/>
</g>
<rect x="66.2325" y="36.6788" width="0.492488" height="24.1293" fill="white"/>
<path fill-rule="evenodd" clip-rule="evenodd" d="M64.7538 61.2551H62.2279C61.9044 61.255 61.7538 61.2385 61.6516 61.5154C61.6278 61.6306 61.6338 61.6166 61.6516 61.7305C61.74 61.9699 61.885 61.9759 61.906 62.033C61.9431 62.0523 62.6249 62.5497 62.6818 62.6355C62.7404 62.6499 62.8135 62.7183 62.8658 62.759L64.0349 63.6661C63.7844 64.5317 63.4275 65.4793 63.2183 66.335C63.1741 66.5161 63.1057 66.6252 63.2338 66.8131C63.3468 66.979 63.5238 66.9626 63.6858 66.9121C63.7296 66.8885 65.5872 65.4246 65.9744 65.1536C66.4753 65.4725 67.7577 66.5596 68.263 66.91C68.4402 67.0261 68.7713 66.9225 68.797 66.6496C68.6683 65.8163 68.188 64.5556 67.9122 63.6661C68.5455 63.0238 69.5024 62.5031 70.1794 61.9115C70.4007 61.7183 70.3276 61.3729 70.0654 61.2753C69.9365 61.2273 67.3772 61.2551 67.1781 61.2551C67.1757 61.2506 67.173 61.2446 67.1716 61.2412L66.9836 60.643C66.7739 59.9496 66.5303 59.2828 66.3514 58.5764C66.3253 58.4729 66.3122 58.4167 66.2429 58.3288C66.1928 58.2653 66.1246 58.2099 66.0253 58.197C65.8904 58.1916 65.8276 58.2103 65.7494 58.2847C65.7253 58.3076 65.6918 58.342 65.6711 58.3795C65.4891 58.7093 64.8944 61.2177 64.7538 61.2551Z" fill="#D99B00"/>
<path d="M65.9839 58.195H65.5049C65.5049 58.195 65.5909 58.1968 65.6396 58.2132C65.6884 58.2296 65.7582 58.2863 65.7582 58.2863L65.9839 58.195Z" fill="#D99B00"/>
<path d="M68.4188 66.9582H67.998C67.998 66.9582 68.0754 66.9458 68.12 66.9307C68.1646 66.9157 68.219 66.8796 68.219 66.8796L68.4188 66.9582Z" fill="#D99B00"/>
<path d="M63.5428 66.9443L63.0662 66.9552C63.0662 66.9552 63.1437 66.9456 63.187 66.9296C63.2304 66.9137 63.2884 66.8737 63.2884 66.8737L63.5428 66.9443Z" fill="#D99B00"/>
<g filter="url(#filter15_dii)">
<path fill-rule="evenodd" clip-rule="evenodd" d="M64.3058 61.2582H61.7799C61.4563 61.2582 61.3058 61.2417 61.2035 61.5186C61.1797 61.6337 61.1857 61.6198 61.2035 61.7337C61.292 61.9731 61.4369 61.9791 61.4579 62.0362C61.4951 62.0555 62.1769 62.5529 62.2337 62.6387C62.2924 62.6531 62.3654 62.7215 62.4177 62.7622L63.5869 63.6693C63.3363 64.5349 62.9794 65.4824 62.7703 66.3381C62.726 66.5193 62.6577 66.6283 62.7857 66.8163C62.8987 66.9821 63.1038 66.9873 63.2377 66.9152C63.2815 66.8916 65.1391 65.4278 65.5264 65.1568C66.0272 65.4757 67.3096 66.5628 67.815 66.9132C67.9922 67.0293 68.3233 66.9257 68.349 66.6528C68.2202 65.8194 67.74 64.5588 67.4642 63.6693C68.0974 63.027 69.0544 62.5062 69.7314 61.9147C69.9526 61.7214 69.8796 61.376 69.6174 61.2784C69.4885 61.2305 66.9292 61.2583 66.7301 61.2583C66.7277 61.2538 66.725 61.2478 66.7235 61.2444L66.5356 60.6461C66.3259 59.9527 66.0823 59.286 65.9034 58.5795C65.8724 58.4571 65.8642 58.4199 65.7948 58.3319C65.7448 58.2684 65.6766 58.213 65.5772 58.2002C65.4424 58.1947 65.3796 58.2134 65.3014 58.2879C65.2772 58.3108 65.2438 58.3451 65.223 58.3827C65.0411 58.7124 64.4464 61.2208 64.3058 61.2582Z" fill="#FFC32E"/>
</g>
<path fill-rule="evenodd" clip-rule="evenodd" d="M8.10344 61.8226H5.68279C5.37273 61.8225 5.22846 61.8067 5.13045 62.0721C5.10765 62.1825 5.1134 62.1691 5.13045 62.2782C5.21521 62.5077 5.35413 62.5134 5.37424 62.5681C5.40988 62.5866 6.06324 63.0633 6.11774 63.1455C6.17394 63.1593 6.24393 63.2249 6.29406 63.2639L7.41447 64.1332C7.1744 64.9627 6.83236 65.8707 6.63193 66.6908C6.58952 66.8644 6.52401 66.9689 6.64674 67.149C6.75503 67.308 6.9247 67.2923 7.07989 67.2438C7.12186 67.2213 8.90204 65.8184 9.2732 65.5587C9.75314 65.8643 10.9821 66.9061 11.4664 67.2419C11.6362 67.3532 11.9535 67.2539 11.9781 66.9923C11.8548 66.1937 11.3946 64.9856 11.1302 64.1332C11.7371 63.5176 12.6541 63.0186 13.303 62.4517C13.515 62.2665 13.445 61.9355 13.1937 61.8419C13.0702 61.796 10.6175 61.8226 10.4267 61.8226C10.4244 61.8183 10.4218 61.8126 10.4204 61.8093L10.2403 61.236C10.0393 60.5715 9.80592 59.9325 9.63449 59.2555C9.60939 59.1564 9.59688 59.1025 9.53044 59.0183C9.48248 58.9574 9.41714 58.9043 9.3219 58.892C9.19265 58.8867 9.13249 58.9047 9.05752 58.976C9.03439 58.998 9.00234 59.0309 8.98247 59.0669C8.80811 59.3829 8.2382 61.7868 8.10344 61.8226Z" fill="#D99B00"/>
<path d="M9.28729 58.8893H8.82831C8.82831 58.8893 8.91065 58.8911 8.9574 58.9068C9.00415 58.9225 9.07104 58.9768 9.07104 58.9768L9.28729 58.8893Z" fill="#D99B00"/>
<path d="M11.6172 67.2858H11.2139C11.2139 67.2858 11.2881 67.2739 11.3309 67.2595C11.3736 67.245 11.4258 67.2105 11.4258 67.2105L11.6172 67.2858Z" fill="#D99B00"/>
<path d="M6.9472 67.2743L6.49042 67.2848C6.49042 67.2848 6.56469 67.2756 6.60627 67.2603C6.64785 67.2451 6.70336 67.2067 6.70336 67.2067L6.9472 67.2743Z" fill="#D99B00"/>
<rect x="8.35919" y="36.6799" width="0.46799" height="24.1284" fill="white"/>
<g filter="url(#filter16_dii)">
<path fill-rule="evenodd" clip-rule="evenodd" d="M7.67818 61.824H5.25752C4.94746 61.8239 4.8032 61.8081 4.70519 62.0735C4.68239 62.1839 4.68814 62.1705 4.70519 62.2796C4.78995 62.5091 4.92887 62.5148 4.94897 62.5695C4.98462 62.588 5.63798 63.0647 5.69247 63.1469C5.74868 63.1607 5.81867 63.2263 5.8688 63.2653L6.98921 64.1346C6.74914 64.9641 6.4071 65.8722 6.20667 66.6922C6.16425 66.8658 6.09875 66.9703 6.22148 67.1504C6.32977 67.3094 6.52629 67.3144 6.65463 67.2453C6.6966 67.2227 8.47678 65.8198 8.84794 65.5601C9.32788 65.8657 10.5569 66.9075 11.0412 67.2433C11.211 67.3546 11.5283 67.2553 11.5529 66.9937C11.4295 66.1951 10.9693 64.987 10.705 64.1346C11.3118 63.519 12.2289 63.02 12.8777 62.4531C13.0897 62.2679 13.0197 61.9369 12.7684 61.8434C12.6449 61.7974 10.1922 61.824 10.0014 61.824C9.99914 61.8197 9.99657 61.814 9.99519 61.8107L9.81507 61.2374C9.61408 60.5729 9.38065 59.9339 9.20923 59.2569C9.17952 59.1396 9.17162 59.1039 9.10518 59.0197C9.05722 58.9588 8.99187 58.9057 8.89664 58.8934C8.76738 58.8881 8.70722 58.9061 8.63226 58.9774C8.60913 58.9994 8.57707 59.0323 8.55721 59.0683C8.38285 59.3843 7.81293 61.7882 7.67818 61.824Z" fill="#FFC32E"/>
</g>
</g>
<defs>
<filter id="filter0_d" x="0.246557" y="0.600891" width="74.5078" height="84.6411" filterUnits="userSpaceOnUse" color-interpolation-filters="sRGB">
<feFlood flood-opacity="0" result="BackgroundImageFix"/>
<feColorMatrix in="SourceAlpha" type="matrix" values="0 0 0 0 0 0 0 0 0 0 0 0 0 0 0 0 0 0 127 0"/>
<feOffset dy="4.44361"/>
<feGaussianBlur stdDeviation="2.22181"/>
<feColorMatrix type="matrix" values="0 0 0 0 0 0 0 0 0 0 0 0 0 0 0 0 0 0 0.25 0"/>
<feBlend mode="normal" in2="BackgroundImageFix" result="effect1_dropShadow"/>
<feBlend mode="normal" in="SourceGraphic" in2="effect1_dropShadow" result="shape"/>
</filter>
<filter id="filter1_d" x="23.0331" y="35.1659" width="7.99567" height="37.8711" filterUnits="userSpaceOnUse" color-interpolation-filters="sRGB">
<feFlood flood-opacity="0" result="BackgroundImageFix"/>
<feColorMatrix in="SourceAlpha" type="matrix" values="0 0 0 0 0 0 0 0 0 0 0 0 0 0 0 0 0 0 127 0"/>
<feOffset dy="3.58768"/>
<feGaussianBlur stdDeviation="1.79384"/>
<feColorMatrix type="matrix" values="0 0 0 0 0 0 0 0 0 0 0 0 0 0 0 0 0 0 0.25 0"/>
<feBlend mode="normal" in2="BackgroundImageFix" result="effect1_dropShadow"/>
<feBlend mode="normal" in="SourceGraphic" in2="effect1_dropShadow" result="shape"/>
</filter>
<filter id="filter2_d" x="33.6083" y="35.4982" width="7.99567" height="27.4012" filterUnits="userSpaceOnUse" color-interpolation-filters="sRGB">
<feFlood flood-opacity="0" result="BackgroundImageFix"/>
<feColorMatrix in="SourceAlpha" type="matrix" values="0 0 0 0 0 0 0 0 0 0 0 0 0 0 0 0 0 0 127 0"/>
<feOffset dy="3.58768"/>
<feGaussianBlur stdDeviation="1.79384"/>
<feColorMatrix type="matrix" values="0 0 0 0 0 0 0 0 0 0 0 0 0 0 0 0 0 0 0.25 0"/>
<feBlend mode="normal" in2="BackgroundImageFix" result="effect1_dropShadow"/>
<feBlend mode="normal" in="SourceGraphic" in2="effect1_dropShadow" result="shape"/>
</filter>
<filter id="filter3_d" x="44.1088" y="35.4982" width="7.99568" height="32.56" filterUnits="userSpaceOnUse" color-interpolation-filters="sRGB">
<feFlood flood-opacity="0" result="BackgroundImageFix"/>
<feColorMatrix in="SourceAlpha" type="matrix" values="0 0 0 0 0 0 0 0 0 0 0 0 0 0 0 0 0 0 127 0"/>
<feOffset dy="3.58768"/>
<feGaussianBlur stdDeviation="1.79384"/>
<feColorMatrix type="matrix" values="0 0 0 0 0 0 0 0 0 0 0 0 0 0 0 0 0 0 0.25 0"/>
<feBlend mode="normal" in2="BackgroundImageFix" result="effect1_dropShadow"/>
<feBlend mode="normal" in="SourceGraphic" in2="effect1_dropShadow" result="shape"/>
</filter>
<filter id="filter4_d" x="7.4601" y="17.9887" width="65.5442" height="30.461" filterUnits="userSpaceOnUse" color-interpolation-filters="sRGB">
<feFlood flood-opacity="0" result="BackgroundImageFix"/>
<feColorMatrix in="SourceAlpha" type="matrix" values="0 0 0 0 0 0 0 0 0 0 0 0 0 0 0 0 0 0 127 0"/>
<feOffset dx="2.69076" dy="2.69076"/>
<feGaussianBlur stdDeviation="1.79384"/>
<feColorMatrix type="matrix" values="0 0 0 0 0 0 0 0 0 0 0 0 0 0 0 0 0 0 0.11 0"/>
<feBlend mode="normal" in2="BackgroundImageFix" result="effect1_dropShadow"/>
<feBlend mode="normal" in="SourceGraphic" in2="effect1_dropShadow" result="shape"/>
</filter>
<filter id="filter5_dii" x="16.902" y="61.2941" width="25.6906" height="20.4418" filterUnits="userSpaceOnUse" color-interpolation-filters="sRGB">
<feFlood flood-opacity="0" result="BackgroundImageFix"/>
<feColorMatrix in="SourceAlpha" type="matrix" values="0 0 0 0 0 0 0 0 0 0 0 0 0 0 0 0 0 0 127 0"/>
<feOffset dx="1.79384" dy="1.79384"/>
<feGaussianBlur stdDeviation="1.79384"/>
<feColorMatrix type="matrix" values="0 0 0 0 0 0 0 0 0 0 0 0 0 0 0 0 0 0 0.25 0"/>
<feBlend mode="normal" in2="BackgroundImageFix" result="effect1_dropShadow"/>
<feBlend mode="normal" in="SourceGraphic" in2="effect1_dropShadow" result="shape"/>
<feColorMatrix in="SourceAlpha" type="matrix" values="0 0 0 0 0 0 0 0 0 0 0 0 0 0 0 0 0 0 127 0" result="hardAlpha"/>
<feOffset dx="-0.89692" dy="-0.89692"/>
<feGaussianBlur stdDeviation="0.89692"/>
<feComposite in2="hardAlpha" operator="arithmetic" k2="-1" k3="1"/>
<feColorMatrix type="matrix" values="0 0 0 0 0 0 0 0 0 0 0 0 0 0 0 0 0 0 0.29 0"/>
<feBlend mode="normal" in2="shape" result="effect2_innerShadow"/>
<feColorMatrix in="SourceAlpha" type="matrix" values="0 0 0 0 0 0 0 0 0 0 0 0 0 0 0 0 0 0 127 0" result="hardAlpha"/>
<feOffset dx="0.89692" dy="0.89692"/>
<feGaussianBlur stdDeviation="0.89692"/>
<feComposite in2="hardAlpha" operator="arithmetic" k2="-1" k3="1"/>
<feColorMatrix type="matrix" values="0 0 0 0 1 0 0 0 0 1 0 0 0 0 1 0 0 0 0.78 0"/>
<feBlend mode="normal" in2="effect2_innerShadow" result="effect3_innerShadow"/>
</filter>
<filter id="filter6_dii" x="40.7655" y="52.9485" width="15.7284" height="12.2867" filterUnits="userSpaceOnUse" color-interpolation-filters="sRGB">
<feFlood flood-opacity="0" result="BackgroundImageFix"/>
<feColorMatrix in="SourceAlpha" type="matrix" values="0 0 0 0 0 0 0 0 0 0 0 0 0 0 0 0 0 0 127 0"/>
<feOffset dx="0.89692" dy="0.89692"/>
<feGaussianBlur stdDeviation="0.89692"/>
<feColorMatrix type="matrix" values="0 0 0 0 0 0 0 0 0 0 0 0 0 0 0 0 0 0 0.14 0"/>
<feBlend mode="normal" in2="BackgroundImageFix" result="effect1_dropShadow"/>
<feBlend mode="normal" in="SourceGraphic" in2="effect1_dropShadow" result="shape"/>
<feColorMatrix in="SourceAlpha" type="matrix" values="0 0 0 0 0 0 0 0 0 0 0 0 0 0 0 0 0 0 127 0" result="hardAlpha"/>
<feOffset dx="-0.89692" dy="-0.89692"/>
<feGaussianBlur stdDeviation="0.89692"/>
<feComposite in2="hardAlpha" operator="arithmetic" k2="-1" k3="1"/>
<feColorMatrix type="matrix" values="0 0 0 0 0 0 0 0 0 0 0 0 0 0 0 0 0 0 0.29 0"/>
<feBlend mode="normal" in2="shape" result="effect2_innerShadow"/>
<feColorMatrix in="SourceAlpha" type="matrix" values="0 0 0 0 0 0 0 0 0 0 0 0 0 0 0 0 0 0 127 0" result="hardAlpha"/>
<feOffset dx="0.89692" dy="0.89692"/>
<feGaussianBlur stdDeviation="0.89692"/>
<feComposite in2="hardAlpha" operator="arithmetic" k2="-1" k3="1"/>
<feColorMatrix type="matrix" values="0 0 0 0 1 0 0 0 0 1 0 0 0 0 1 0 0 0 0.78 0"/>
<feBlend mode="normal" in2="effect2_innerShadow" result="effect3_innerShadow"/>
</filter>
<filter id="filter7_d" x="51.1007" y="36.583" width="7.62057" height="18.5639" filterUnits="userSpaceOnUse" color-interpolation-filters="sRGB">
<feFlood flood-opacity="0" result="BackgroundImageFix"/>
<feColorMatrix in="SourceAlpha" type="matrix" values="0 0 0 0 0 0 0 0 0 0 0 0 0 0 0 0 0 0 127 0"/>
<feOffset dy="3.58768"/>
<feGaussianBlur stdDeviation="1.79384"/>
<feColorMatrix type="matrix" values="0 0 0 0 0 0 0 0 0 0 0 0 0 0 0 0 0 0 0.11 0"/>
<feBlend mode="normal" in2="BackgroundImageFix" result="effect1_dropShadow"/>
<feBlend mode="normal" in="SourceGraphic" in2="effect1_dropShadow" result="shape"/>
</filter>
<filter id="filter8_d" x="16.142" y="36.2107" width="7.70115" height="27.2101" filterUnits="userSpaceOnUse" color-interpolation-filters="sRGB">
<feFlood flood-opacity="0" result="BackgroundImageFix"/>
<feColorMatrix in="SourceAlpha" type="matrix" values="0 0 0 0 0 0 0 0 0 0 0 0 0 0 0 0 0 0 127 0"/>
<feOffset dy="3.58768"/>
<feGaussianBlur stdDeviation="1.79384"/>
<feColorMatrix type="matrix" values="0 0 0 0 0 0 0 0 0 0 0 0 0 0 0 0 0 0 0.11 0"/>
<feBlend mode="normal" in2="BackgroundImageFix" result="effect1_dropShadow"/>
<feBlend mode="normal" in="SourceGraphic" in2="effect1_dropShadow" result="shape"/>
</filter>
<filter id="filter9_i" x="32.3456" y="49.2462" width="17.6262" height="19.0995" filterUnits="userSpaceOnUse" color-interpolation-filters="sRGB">
<feFlood flood-opacity="0" result="BackgroundImageFix"/>
<feBlend mode="normal" in="SourceGraphic" in2="BackgroundImageFix" result="shape"/>
<feColorMatrix in="SourceAlpha" type="matrix" values="0 0 0 0 0 0 0 0 0 0 0 0 0 0 0 0 0 0 127 0" result="hardAlpha"/>
<feOffset dx="0.44846" dy="0.44846"/>
<feGaussianBlur stdDeviation="0.89692"/>
<feComposite in2="hardAlpha" operator="arithmetic" k2="-1" k3="1"/>
<feColorMatrix type="matrix" values="0 0 0 0 0 0 0 0 0 0 0 0 0 0 0 0 0 0 0.33 0"/>
<feBlend mode="normal" in2="shape" result="effect1_innerShadow"/>
</filter>
<filter id="filter10_d" x="28.3749" y="50.041" width="21.9398" height="24.664" filterUnits="userSpaceOnUse" color-interpolation-filters="sRGB">
<feFlood flood-opacity="0" result="BackgroundImageFix"/>
<feColorMatrix in="SourceAlpha" type="matrix" values="0 0 0 0 0 0 0 0 0 0 0 0 0 0 0 0 0 0 127 0"/>
<feOffset dy="3.58768"/>
<feGaussianBlur stdDeviation="1.79384"/>
<feColorMatrix type="matrix" values="0 0 0 0 0 0 0 0 0 0 0 0 0 0 0 0 0 0 0.25 0"/>
<feBlend mode="normal" in2="BackgroundImageFix" result="effect1_dropShadow"/>
<feBlend mode="normal" in="SourceGraphic" in2="effect1_dropShadow" result="shape"/>
</filter>
<filter id="filter11_d" x="49.4266" y="45.6734" width="10.5787" height="16.3478" filterUnits="userSpaceOnUse" color-interpolation-filters="sRGB">
<feFlood flood-opacity="0" result="BackgroundImageFix"/>
<feColorMatrix in="SourceAlpha" type="matrix" values="0 0 0 0 0 0 0 0 0 0 0 0 0 0 0 0 0 0 127 0"/>
<feOffset dy="3.58768"/>
<feGaussianBlur stdDeviation="1.79384"/>
<feColorMatrix type="matrix" values="0 0 0 0 0 0 0 0 0 0 0 0 0 0 0 0 0 0 0.19 0"/>
<feBlend mode="normal" in2="BackgroundImageFix" result="effect1_dropShadow"/>
<feBlend mode="normal" in="SourceGraphic" in2="effect1_dropShadow" result="shape"/>
</filter>
<filter id="filter12_d" x="13.6943" y="53.2417" width="11.9219" height="19.9676" filterUnits="userSpaceOnUse" color-interpolation-filters="sRGB">
<feFlood flood-opacity="0" result="BackgroundImageFix"/>
<feColorMatrix in="SourceAlpha" type="matrix" values="0 0 0 0 0 0 0 0 0 0 0 0 0 0 0 0 0 0 127 0"/>
<feOffset dy="3.58768"/>
<feGaussianBlur stdDeviation="1.79384"/>
<feColorMatrix type="matrix" values="0 0 0 0 0 0 0 0 0 0 0 0 0 0 0 0 0 0 0.12 0"/>
<feBlend mode="normal" in2="BackgroundImageFix" result="effect1_dropShadow"/>
<feBlend mode="normal" in="SourceGraphic" in2="effect1_dropShadow" result="shape"/>
</filter>
<filter id="filter13_di" x="49.4233" y="45.6775" width="10.8988" height="16.6307" filterUnits="userSpaceOnUse" color-interpolation-filters="sRGB">
<feFlood flood-opacity="0" result="BackgroundImageFix"/>
<feColorMatrix in="SourceAlpha" type="matrix" values="0 0 0 0 0 0 0 0 0 0 0 0 0 0 0 0 0 0 127 0"/>
<feOffset dy="3.58768"/>
<feGaussianBlur stdDeviation="1.79384"/>
<feColorMatrix type="matrix" values="0 0 0 0 0 0 0 0 0 0 0 0 0 0 0 0 0 0 0.25 0"/>
<feBlend mode="normal" in2="BackgroundImageFix" result="effect1_dropShadow"/>
<feBlend mode="normal" in="SourceGraphic" in2="effect1_dropShadow" result="shape"/>
<feColorMatrix in="SourceAlpha" type="matrix" values="0 0 0 0 0 0 0 0 0 0 0 0 0 0 0 0 0 0 127 0" result="hardAlpha"/>
<feOffset dx="0.179384" dy="0.179384"/>
<feGaussianBlur stdDeviation="0.22423"/>
<feComposite in2="hardAlpha" operator="arithmetic" k2="-1" k3="1"/>
<feColorMatrix type="matrix" values="0 0 0 0 0 0 0 0 0 0 0 0 0 0 0 0 0 0 0.25 0"/>
<feBlend mode="normal" in2="shape" result="effect2_innerShadow"/>
</filter>
<filter id="filter14_di" x="13.6906" y="53.2439" width="12.3682" height="20.362" filterUnits="userSpaceOnUse" color-interpolation-filters="sRGB">
<feFlood flood-opacity="0" result="BackgroundImageFix"/>
<feColorMatrix in="SourceAlpha" type="matrix" values="0 0 0 0 0 0 0 0 0 0 0 0 0 0 0 0 0 0 127 0"/>
<feOffset dy="3.58768"/>
<feGaussianBlur stdDeviation="1.79384"/>
<feColorMatrix type="matrix" values="0 0 0 0 0 0 0 0 0 0 0 0 0 0 0 0 0 0 0.25 0"/>
<feBlend mode="normal" in2="BackgroundImageFix" result="effect1_dropShadow"/>
<feBlend mode="normal" in="SourceGraphic" in2="effect1_dropShadow" result="shape"/>
<feColorMatrix in="SourceAlpha" type="matrix" values="0 0 0 0 0 0 0 0 0 0 0 0 0 0 0 0 0 0 127 0" result="hardAlpha"/>
<feOffset dx="0.179384" dy="0.179384"/>
<feGaussianBlur stdDeviation="0.22423"/>
<feComposite in2="hardAlpha" operator="arithmetic" k2="-1" k3="1"/>
<feColorMatrix type="matrix" values="0 0 0 0 0 0 0 0 0 0 0 0 0 0 0 0 0 0 0.25 0"/>
<feBlend mode="normal" in2="shape" result="effect2_innerShadow"/>
</filter>
<filter id="filter15_dii" x="57.6002" y="58.1096" width="15.8499" height="16.0259" filterUnits="userSpaceOnUse" color-interpolation-filters="sRGB">
<feFlood flood-opacity="0" result="BackgroundImageFix"/>
<feColorMatrix in="SourceAlpha" type="matrix" values="0 0 0 0 0 0 0 0 0 0 0 0 0 0 0 0 0 0 127 0"/>
<feOffset dy="3.58768"/>
<feGaussianBlur stdDeviation="1.79384"/>
<feColorMatrix type="matrix" values="0 0 0 0 0 0 0 0 0 0 0 0 0 0 0 0 0 0 0.15 0"/>
<feBlend mode="normal" in2="BackgroundImageFix" result="effect1_dropShadow"/>
<feBlend mode="normal" in="SourceGraphic" in2="effect1_dropShadow" result="shape"/>
<feColorMatrix in="SourceAlpha" type="matrix" values="0 0 0 0 0 0 0 0 0 0 0 0 0 0 0 0 0 0 127 0" result="hardAlpha"/>
<feOffset dx="-0.089692" dy="-0.089692"/>
<feGaussianBlur stdDeviation="0.22423"/>
<feComposite in2="hardAlpha" operator="arithmetic" k2="-1" k3="1"/>
<feColorMatrix type="matrix" values="0 0 0 0 0.591667 0 0 0 0 0.423306 0 0 0 0 0 0 0 0 0.47 0"/>
<feBlend mode="normal" in2="shape" result="effect2_innerShadow"/>
<feColorMatrix in="SourceAlpha" type="matrix" values="0 0 0 0 0 0 0 0 0 0 0 0 0 0 0 0 0 0 127 0" result="hardAlpha"/>
<feOffset dx="0.089692" dy="0.089692"/>
<feGaussianBlur stdDeviation="0.22423"/>
<feComposite in2="hardAlpha" operator="arithmetic" k2="-1" k3="1"/>
<feColorMatrix type="matrix" values="0 0 0 0 1 0 0 0 0 1 0 0 0 0 1 0 0 0 0.71 0"/>
<feBlend mode="normal" in2="effect2_innerShadow" result="effect3_innerShadow"/>
</filter>
<filter id="filter16_dii" x="1.10249" y="58.8028" width="15.4884" height="15.6609" filterUnits="userSpaceOnUse" color-interpolation-filters="sRGB">
<feFlood flood-opacity="0" result="BackgroundImageFix"/>
<feColorMatrix in="SourceAlpha" type="matrix" values="0 0 0 0 0 0 0 0 0 0 0 0 0 0 0 0 0 0 127 0"/>
<feOffset dy="3.58768"/>
<feGaussianBlur stdDeviation="1.79384"/>
<feColorMatrix type="matrix" values="0 0 0 0 0 0 0 0 0 0 0 0 0 0 0 0 0 0 0.1 0"/>
<feBlend mode="normal" in2="BackgroundImageFix" result="effect1_dropShadow"/>
<feBlend mode="normal" in="SourceGraphic" in2="effect1_dropShadow" result="shape"/>
<feColorMatrix in="SourceAlpha" type="matrix" values="0 0 0 0 0 0 0 0 0 0 0 0 0 0 0 0 0 0 127 0" result="hardAlpha"/>
<feOffset dx="-0.089692" dy="-0.089692"/>
<feGaussianBlur stdDeviation="0.22423"/>
<feComposite in2="hardAlpha" operator="arithmetic" k2="-1" k3="1"/>
<feColorMatrix type="matrix" values="0 0 0 0 0.591667 0 0 0 0 0.423306 0 0 0 0 0 0 0 0 0.47 0"/>
<feBlend mode="normal" in2="shape" result="effect2_innerShadow"/>
<feColorMatrix in="SourceAlpha" type="matrix" values="0 0 0 0 0 0 0 0 0 0 0 0 0 0 0 0 0 0 127 0" result="hardAlpha"/>
<feOffset dx="0.089692" dy="0.089692"/>
<feGaussianBlur stdDeviation="0.22423"/>
<feComposite in2="hardAlpha" operator="arithmetic" k2="-1" k3="1"/>
<feColorMatrix type="matrix" values="0 0 0 0 1 0 0 0 0 1 0 0 0 0 1 0 0 0 0.71 0"/>
<feBlend mode="normal" in2="effect2_innerShadow" result="effect3_innerShadow"/>
</filter>
</defs>
</svg>
