<svg width="44" height="24" viewBox="0 0 44 24" fill="none" xmlns="http://www.w3.org/2000/svg">
<rect y="-0.000274658" width="44" height="24" rx="12" fill="white"/>
<path d="M8.96094 17.9997H7.55469V9.03879C7.21615 9.3617 6.77083 9.68462 6.21875 10.0075C5.67188 10.3305 5.17969 10.5726 4.74219 10.7341V9.37473C5.52865 9.00493 6.21615 8.55702 6.80469 8.03098C7.39323 7.50493 7.8099 6.99452 8.05469 6.49973H8.96094V17.9997ZM20.4409 16.6482V17.9997H12.8706C12.8602 17.6612 12.9149 17.3357 13.0347 17.0232C13.2274 16.5075 13.5347 15.9997 13.9566 15.4997C14.3836 14.9997 14.9982 14.4216 15.8003 13.7654C17.0451 12.7445 17.8862 11.9372 18.3237 11.3435C18.7612 10.7445 18.98 10.1794 18.98 9.64816C18.98 9.09087 18.7795 8.62212 18.3784 8.24191C17.9826 7.8565 17.4644 7.66379 16.8237 7.66379C16.1467 7.66379 15.605 7.86691 15.1987 8.27316C14.7925 8.67941 14.5868 9.24191 14.5816 9.96066L13.1362 9.81223C13.2352 8.7341 13.6076 7.91379 14.2534 7.35129C14.8993 6.78358 15.7665 6.49973 16.855 6.49973C17.954 6.49973 18.8237 6.80441 19.4644 7.41379C20.105 8.02316 20.4253 8.77837 20.4253 9.67941C20.4253 10.1377 20.3316 10.5883 20.1441 11.031C19.9566 11.4737 19.6441 11.9398 19.2066 12.4294C18.7743 12.919 18.0529 13.5909 17.0425 14.445C16.1987 15.1534 15.6571 15.6351 15.4175 15.8904C15.1779 16.1404 14.98 16.393 14.8237 16.6482H20.4409ZM22.4366 14.9997L23.9131 14.8747C24.0225 15.5935 24.2751 16.1351 24.6709 16.4997C25.072 16.8591 25.5537 17.0388 26.1162 17.0388C26.7933 17.0388 27.3662 16.7836 27.835 16.2732C28.3037 15.7627 28.5381 15.0857 28.5381 14.2419C28.5381 13.4398 28.3116 12.807 27.8584 12.3435C27.4105 11.8799 26.822 11.6482 26.0928 11.6482C25.6397 11.6482 25.2308 11.7523 24.8662 11.9607C24.5017 12.1638 24.2152 12.4294 24.0069 12.7575L22.6866 12.5857L23.7959 6.70285H29.4912V8.0466H24.9209L24.3037 11.1247C24.9912 10.6456 25.7126 10.406 26.4678 10.406C27.4678 10.406 28.3116 10.7523 28.9991 11.445C29.6866 12.1377 30.0303 13.0284 30.0303 14.1169C30.0303 15.1534 29.7282 16.0492 29.1241 16.8044C28.3897 17.7315 27.3871 18.195 26.1162 18.195C25.0746 18.195 24.223 17.9034 23.5616 17.32C22.9053 16.7367 22.5303 15.9633 22.4366 14.9997ZM36.3306 17.9997V15.2575H31.3619V13.9685L36.5884 6.5466H37.7369V13.9685H39.2838V15.2575H37.7369V17.9997H36.3306ZM36.3306 13.9685V8.80441L32.7447 13.9685H36.3306Z" fill="#042D48"/>
</svg>
