<svg width="310" height="188" viewBox="0 0 310 188" fill="none" xmlns="http://www.w3.org/2000/svg">
<rect width="453.852" height="187" transform="translate(-72 0.714783)" fill="#042D48"/>
<g filter="url(#filter0_d)">
<g filter="url(#filter1_dii)">
<path d="M125.937 44.6071C125.937 43.3027 126.995 42.2453 128.299 42.2453H180.258C181.563 42.2453 182.62 43.3027 182.62 44.6071V153.25H128.299C126.995 153.25 125.937 152.192 125.937 150.888V44.6071Z" fill="#A7C2F8"/>
</g>
<g filter="url(#filter2_dii)">
<rect x="136.566" y="48.1493" width="4.57364" height="99.1953" rx="1.18089" fill="white"/>
<rect x="128.889" y="48.1504" width="4.57364" height="99.1953" rx="1.18089" fill="white"/>
<rect x="174.87" y="48.1493" width="4.57364" height="99.1953" rx="1.18089" fill="white"/>
<rect x="159.517" y="48.1493" width="4.57364" height="99.1953" rx="1.18089" fill="white"/>
<rect x="167.193" y="48.1493" width="4.57364" height="99.1953" rx="1.18089" fill="white"/>
<rect x="144.242" y="48.1493" width="4.57364" height="99.1953" rx="1.18089" fill="white"/>
<rect x="151.913" y="48.1493" width="4.57364" height="99.1953" rx="1.18089" fill="white"/>
</g>
<g filter="url(#filter3_di)">
<path d="M90.7706 79.5691C90.7706 78.2647 91.828 77.2073 93.1324 77.2073H131.254C132.558 77.2073 133.615 78.2647 133.615 79.5691V157.089C133.615 158.181 132.73 159.067 131.637 159.067H92.7486C91.6562 159.067 90.7706 158.181 90.7706 157.089V79.5691Z" fill="white"/>
</g>
<g filter="url(#filter4_di)">
<path d="M174.869 79.5691C174.869 78.2647 175.927 77.2073 177.231 77.2073H215.352C216.656 77.2073 217.714 78.2647 217.714 79.5691V157.089C217.714 158.181 216.828 159.067 215.736 159.067H176.847C175.755 159.067 174.869 158.181 174.869 157.089V79.5691Z" fill="white"/>
</g>
<g filter="url(#filter5_i)">
<path d="M131.34 77.2378H93.3476L93.3473 75.8757C93.3469 73.9189 94.9331 72.3323 96.89 72.3323H127.797C129.754 72.3323 131.34 73.9184 131.34 75.875V77.2378Z" fill="#608CE6"/>
</g>
<g filter="url(#filter6_i)">
<path d="M215.44 77.2378H177.447L177.447 75.8757C177.446 73.9189 179.033 72.3323 180.989 72.3323H211.897C213.853 72.3323 215.44 73.9184 215.44 75.875V77.2378Z" fill="#608CE6"/>
</g>
<g filter="url(#filter7_i)">
<rect x="94.4014" y="85.0614" width="9.81744" height="4.10135" rx="2.05068" fill="#E1E1E1"/>
<rect x="94.4034" y="94.0919" width="9.81744" height="4.10135" rx="2.05068" fill="#E1E1E1"/>
<rect x="94.7026" y="112.151" width="9.81744" height="4.10135" rx="2.05068" fill="#E1E1E1"/>
<rect x="94.4034" y="130.212" width="9.81744" height="4.10135" rx="2.05068" fill="#E1E1E1"/>
<rect x="94.4034" y="103.121" width="9.81744" height="4.10135" rx="2.05068" fill="#E1E1E1"/>
<rect x="94.7026" y="121.181" width="9.81744" height="4.10135" rx="2.05068" fill="#E1E1E1"/>
<rect x="94.4034" y="139.242" width="9.81744" height="4.10135" rx="2.05068" fill="#E1E1E1"/>
<rect x="94.4034" y="148.273" width="9.81744" height="4.10135" rx="2.05068" fill="#E1E1E1"/>
<rect x="107.131" y="85.0606" width="9.81744" height="4.10135" rx="2.05068" fill="#E1E1E1"/>
<rect x="107.131" y="94.0919" width="9.81744" height="4.10135" rx="2.05068" fill="#E1E1E1"/>
<rect x="107.435" y="112.151" width="9.81744" height="4.10135" rx="2.05068" fill="#E1E1E1"/>
<rect x="107.131" y="130.212" width="9.81744" height="4.10135" rx="2.05068" fill="#E1E1E1"/>
<rect x="107.131" y="103.121" width="9.81744" height="4.10135" rx="2.05068" fill="#E1E1E1"/>
<rect x="107.435" y="121.181" width="9.81744" height="4.10135" rx="2.05068" fill="#E1E1E1"/>
<rect x="107.131" y="139.242" width="9.81744" height="4.10135" rx="2.05068" fill="#E1E1E1"/>
<rect x="107.131" y="148.273" width="9.81744" height="4.10135" rx="2.05068" fill="#E1E1E1"/>
<rect x="119.865" y="85.0606" width="9.81744" height="4.10135" rx="2.05068" fill="#E1E1E1"/>
<rect x="119.865" y="94.0919" width="9.81744" height="4.10135" rx="2.05068" fill="#E1E1E1"/>
<rect x="120.164" y="112.151" width="9.81744" height="4.10135" rx="2.05068" fill="#E1E1E1"/>
<rect x="119.865" y="130.212" width="9.81744" height="4.10135" rx="2.05068" fill="#E1E1E1"/>
<rect x="119.865" y="103.121" width="9.81744" height="4.10135" rx="2.05068" fill="#E1E1E1"/>
<rect x="120.164" y="121.181" width="9.81744" height="4.10135" rx="2.05068" fill="#E1E1E1"/>
<rect x="119.865" y="139.242" width="9.81744" height="4.10135" rx="2.05068" fill="#E1E1E1"/>
<rect x="119.865" y="148.273" width="9.81744" height="4.10135" rx="2.05068" fill="#E1E1E1"/>
</g>
<g filter="url(#filter8_i)">
<rect x="178.5" y="85.0614" width="9.81744" height="4.10135" rx="2.05068" fill="#E1E1E1"/>
<rect x="178.502" y="94.0919" width="9.81744" height="4.10135" rx="2.05068" fill="#E1E1E1"/>
<rect x="178.802" y="112.151" width="9.81744" height="4.10135" rx="2.05068" fill="#E1E1E1"/>
<rect x="178.502" y="130.212" width="9.81744" height="4.10135" rx="2.05068" fill="#E1E1E1"/>
<rect x="178.502" y="103.121" width="9.81744" height="4.10135" rx="2.05068" fill="#E1E1E1"/>
<rect x="178.802" y="121.181" width="9.81744" height="4.10135" rx="2.05068" fill="#E1E1E1"/>
<rect x="178.502" y="139.242" width="9.81744" height="4.10135" rx="2.05068" fill="#E1E1E1"/>
<rect x="178.502" y="148.273" width="9.81744" height="4.10135" rx="2.05068" fill="#E1E1E1"/>
<rect x="191.23" y="85.0606" width="9.81744" height="4.10135" rx="2.05068" fill="#E1E1E1"/>
<rect x="191.23" y="94.0919" width="9.81744" height="4.10135" rx="2.05068" fill="#E1E1E1"/>
<rect x="191.533" y="112.151" width="9.81744" height="4.10135" rx="2.05068" fill="#E1E1E1"/>
<rect x="191.23" y="130.212" width="9.81744" height="4.10135" rx="2.05068" fill="#E1E1E1"/>
<rect x="191.23" y="103.121" width="9.81744" height="4.10135" rx="2.05068" fill="#E1E1E1"/>
<rect x="191.533" y="121.181" width="9.81744" height="4.10135" rx="2.05068" fill="#E1E1E1"/>
<rect x="191.23" y="139.242" width="9.81744" height="4.10135" rx="2.05068" fill="#E1E1E1"/>
<rect x="191.23" y="148.273" width="9.81744" height="4.10135" rx="2.05068" fill="#E1E1E1"/>
<rect x="203.963" y="85.0606" width="9.81744" height="4.10135" rx="2.05068" fill="#E1E1E1"/>
<rect x="203.963" y="94.0919" width="9.81744" height="4.10135" rx="2.05068" fill="#E1E1E1"/>
<rect x="204.262" y="112.151" width="9.81744" height="4.10135" rx="2.05068" fill="#E1E1E1"/>
<rect x="203.963" y="130.212" width="9.81744" height="4.10135" rx="2.05068" fill="#E1E1E1"/>
<rect x="203.963" y="103.121" width="9.81744" height="4.10135" rx="2.05068" fill="#E1E1E1"/>
<rect x="204.262" y="121.181" width="9.81744" height="4.10135" rx="2.05068" fill="#E1E1E1"/>
<rect x="203.963" y="139.242" width="9.81744" height="4.10135" rx="2.05068" fill="#E1E1E1"/>
<rect x="203.963" y="148.273" width="9.81744" height="4.10135" rx="2.05068" fill="#E1E1E1"/>
</g>
<g filter="url(#filter9_ii)">
<path d="M132.291 31.6846C132.605 30.7086 133.514 30.0471 134.539 30.0471H174.373C175.443 30.0471 176.379 30.7661 176.655 31.7996L179.444 42.2447H128.889L132.291 31.6846Z" fill="#6491EB"/>
</g>
<path d="M155.074 40.3275V37.3276C155.074 37.16 155.21 37.0242 155.378 37.0242H158.325C158.493 37.0242 158.629 36.8884 158.629 36.7208V35.5128C158.629 35.3453 158.493 35.2094 158.325 35.2094H155.378C155.21 35.2094 155.074 35.0736 155.074 34.9061V31.9536C155.074 31.786 154.939 31.6502 154.771 31.6502H153.552C153.384 31.6502 153.248 31.786 153.248 31.9536V34.9061C153.248 35.0736 153.113 35.2094 152.945 35.2094H150.007C149.839 35.2094 149.703 35.3453 149.703 35.5128V36.7208C149.703 36.8884 149.839 37.0242 150.007 37.0242H152.945C153.113 37.0242 153.248 37.16 153.248 37.3276V40.2832C153.248 40.4465 153.378 40.5805 153.541 40.5864L154.76 40.6307C154.932 40.637 155.074 40.4994 155.074 40.3275Z" fill="white"/>
</g>
<defs>
<filter id="filter0_d" x="90.7694" y="30.0471" width="142.768" height="144.843" filterUnits="userSpaceOnUse" color-interpolation-filters="sRGB">
<feFlood flood-opacity="0" result="BackgroundImageFix"/>
<feColorMatrix in="SourceAlpha" type="matrix" values="0 0 0 0 0 0 0 0 0 0 0 0 0 0 0 0 0 0 127 0"/>
<feOffset dx="7.91187" dy="7.91187"/>
<feGaussianBlur stdDeviation="3.95593"/>
<feColorMatrix type="matrix" values="0 0 0 0 0 0 0 0 0 0 0 0 0 0 0 0 0 0 0.41 0"/>
<feBlend mode="normal" in2="BackgroundImageFix" result="effect1_dropShadow"/>
<feBlend mode="normal" in="SourceGraphic" in2="effect1_dropShadow" result="shape"/>
</filter>
<filter id="filter1_dii" x="121.981" y="40.2673" width="64.5949" height="120.894" filterUnits="userSpaceOnUse" color-interpolation-filters="sRGB">
<feFlood flood-opacity="0" result="BackgroundImageFix"/>
<feColorMatrix in="SourceAlpha" type="matrix" values="0 0 0 0 0 0 0 0 0 0 0 0 0 0 0 0 0 0 127 0"/>
<feOffset dy="3.95593"/>
<feGaussianBlur stdDeviation="1.97797"/>
<feColorMatrix type="matrix" values="0 0 0 0 0 0 0 0 0 0 0 0 0 0 0 0 0 0 0.18 0"/>
<feBlend mode="normal" in2="BackgroundImageFix" result="effect1_dropShadow"/>
<feBlend mode="normal" in="SourceGraphic" in2="effect1_dropShadow" result="shape"/>
<feColorMatrix in="SourceAlpha" type="matrix" values="0 0 0 0 0 0 0 0 0 0 0 0 0 0 0 0 0 0 127 0" result="hardAlpha"/>
<feOffset dx="-1.97797" dy="-1.97797"/>
<feGaussianBlur stdDeviation="1.97797"/>
<feComposite in2="hardAlpha" operator="arithmetic" k2="-1" k3="1"/>
<feColorMatrix type="matrix" values="0 0 0 0 0 0 0 0 0 0 0 0 0 0 0 0 0 0 0.2 0"/>
<feBlend mode="normal" in2="shape" result="effect2_innerShadow"/>
<feColorMatrix in="SourceAlpha" type="matrix" values="0 0 0 0 0 0 0 0 0 0 0 0 0 0 0 0 0 0 127 0" result="hardAlpha"/>
<feOffset dx="1.97797" dy="1.97797"/>
<feGaussianBlur stdDeviation="1.97797"/>
<feComposite in2="hardAlpha" operator="arithmetic" k2="-1" k3="1"/>
<feColorMatrix type="matrix" values="0 0 0 0 1 0 0 0 0 1 0 0 0 0 1 0 0 0 0.44 0"/>
<feBlend mode="normal" in2="effect2_innerShadow" result="effect3_innerShadow"/>
</filter>
<filter id="filter2_dii" x="120.977" y="46.1713" width="66.6023" height="116.998" filterUnits="userSpaceOnUse" color-interpolation-filters="sRGB">
<feFlood flood-opacity="0" result="BackgroundImageFix"/>
<feColorMatrix in="SourceAlpha" type="matrix" values="0 0 0 0 0 0 0 0 0 0 0 0 0 0 0 0 0 0 127 0"/>
<feOffset dy="7.91187"/>
<feGaussianBlur stdDeviation="3.95593"/>
<feColorMatrix type="matrix" values="0 0 0 0 0 0 0 0 0 0 0 0 0 0 0 0 0 0 0.25 0"/>
<feBlend mode="normal" in2="BackgroundImageFix" result="effect1_dropShadow"/>
<feBlend mode="normal" in="SourceGraphic" in2="effect1_dropShadow" result="shape"/>
<feColorMatrix in="SourceAlpha" type="matrix" values="0 0 0 0 0 0 0 0 0 0 0 0 0 0 0 0 0 0 127 0" result="hardAlpha"/>
<feOffset dx="1.97797" dy="1.97797"/>
<feGaussianBlur stdDeviation="0.590446"/>
<feComposite in2="hardAlpha" operator="arithmetic" k2="-1" k3="1"/>
<feColorMatrix type="matrix" values="0 0 0 0 0 0 0 0 0 0 0 0 0 0 0 0 0 0 0.14 0"/>
<feBlend mode="normal" in2="shape" result="effect2_innerShadow"/>
<feColorMatrix in="SourceAlpha" type="matrix" values="0 0 0 0 0 0 0 0 0 0 0 0 0 0 0 0 0 0 127 0" result="hardAlpha"/>
<feOffset dx="-1.97797" dy="-1.97797"/>
<feGaussianBlur stdDeviation="1.18089"/>
<feComposite in2="hardAlpha" operator="arithmetic" k2="-1" k3="1"/>
<feColorMatrix type="matrix" values="0 0 0 0 1 0 0 0 0 1 0 0 0 0 1 0 0 0 0.88 0"/>
<feBlend mode="normal" in2="effect2_innerShadow" result="effect3_innerShadow"/>
</filter>
<filter id="filter3_di" x="88.7927" y="72.4838" width="60.1743" height="91.3064" filterUnits="userSpaceOnUse" color-interpolation-filters="sRGB">
<feFlood flood-opacity="0" result="BackgroundImageFix"/>
<feColorMatrix in="SourceAlpha" type="matrix" values="0 0 0 0 0 0 0 0 0 0 0 0 0 0 0 0 0 0 127 0"/>
<feOffset dx="10.628"/>
<feGaussianBlur stdDeviation="2.36178"/>
<feColorMatrix type="matrix" values="0 0 0 0 0 0 0 0 0 0 0 0 0 0 0 0 0 0 0.25 0"/>
<feBlend mode="normal" in2="BackgroundImageFix" result="effect1_dropShadow"/>
<feBlend mode="normal" in="SourceGraphic" in2="effect1_dropShadow" result="shape"/>
<feColorMatrix in="SourceAlpha" type="matrix" values="0 0 0 0 0 0 0 0 0 0 0 0 0 0 0 0 0 0 127 0" result="hardAlpha"/>
<feOffset dx="-1.97797" dy="-1.97797"/>
<feGaussianBlur stdDeviation="1.97797"/>
<feComposite in2="hardAlpha" operator="arithmetic" k2="-1" k3="1"/>
<feColorMatrix type="matrix" values="0 0 0 0 0 0 0 0 0 0 0 0 0 0 0 0 0 0 0.16 0"/>
<feBlend mode="normal" in2="shape" result="effect2_innerShadow"/>
</filter>
<filter id="filter4_di" x="159.045" y="71.2734" width="58.6685" height="93.7271" filterUnits="userSpaceOnUse" color-interpolation-filters="sRGB">
<feFlood flood-opacity="0" result="BackgroundImageFix"/>
<feColorMatrix in="SourceAlpha" type="matrix" values="0 0 0 0 0 0 0 0 0 0 0 0 0 0 0 0 0 0 127 0"/>
<feOffset dx="-9.88983"/>
<feGaussianBlur stdDeviation="2.96695"/>
<feColorMatrix type="matrix" values="0 0 0 0 0 0 0 0 0 0 0 0 0 0 0 0 0 0 0.25 0"/>
<feBlend mode="normal" in2="BackgroundImageFix" result="effect1_dropShadow"/>
<feBlend mode="normal" in="SourceGraphic" in2="effect1_dropShadow" result="shape"/>
<feColorMatrix in="SourceAlpha" type="matrix" values="0 0 0 0 0 0 0 0 0 0 0 0 0 0 0 0 0 0 127 0" result="hardAlpha"/>
<feOffset dx="-1.97797" dy="-1.97797"/>
<feGaussianBlur stdDeviation="1.97797"/>
<feComposite in2="hardAlpha" operator="arithmetic" k2="-1" k3="1"/>
<feColorMatrix type="matrix" values="0 0 0 0 0 0 0 0 0 0 0 0 0 0 0 0 0 0 0.16 0"/>
<feBlend mode="normal" in2="shape" result="effect2_innerShadow"/>
</filter>
<filter id="filter5_i" x="90.9855" y="69.9705" width="40.3545" height="7.26726" filterUnits="userSpaceOnUse" color-interpolation-filters="sRGB">
<feFlood flood-opacity="0" result="BackgroundImageFix"/>
<feBlend mode="normal" in="SourceGraphic" in2="BackgroundImageFix" result="shape"/>
<feColorMatrix in="SourceAlpha" type="matrix" values="0 0 0 0 0 0 0 0 0 0 0 0 0 0 0 0 0 0 127 0" result="hardAlpha"/>
<feOffset dx="-2.36178" dy="-2.36178"/>
<feGaussianBlur stdDeviation="1.77134"/>
<feComposite in2="hardAlpha" operator="arithmetic" k2="-1" k3="1"/>
<feColorMatrix type="matrix" values="0 0 0 0 0 0 0 0 0 0 0 0 0 0 0 0 0 0 0.27 0"/>
<feBlend mode="normal" in2="shape" result="effect1_innerShadow"/>
</filter>
<filter id="filter6_i" x="175.085" y="69.9705" width="40.3545" height="7.26726" filterUnits="userSpaceOnUse" color-interpolation-filters="sRGB">
<feFlood flood-opacity="0" result="BackgroundImageFix"/>
<feBlend mode="normal" in="SourceGraphic" in2="BackgroundImageFix" result="shape"/>
<feColorMatrix in="SourceAlpha" type="matrix" values="0 0 0 0 0 0 0 0 0 0 0 0 0 0 0 0 0 0 127 0" result="hardAlpha"/>
<feOffset dx="-2.36178" dy="-2.36178"/>
<feGaussianBlur stdDeviation="1.77134"/>
<feComposite in2="hardAlpha" operator="arithmetic" k2="-1" k3="1"/>
<feColorMatrix type="matrix" values="0 0 0 0 0 0 0 0 0 0 0 0 0 0 0 0 0 0 0.27 0"/>
<feBlend mode="normal" in2="shape" result="effect1_innerShadow"/>
</filter>
<filter id="filter7_i" x="94.4014" y="85.0606" width="35.9754" height="67.7095" filterUnits="userSpaceOnUse" color-interpolation-filters="sRGB">
<feFlood flood-opacity="0" result="BackgroundImageFix"/>
<feBlend mode="normal" in="SourceGraphic" in2="BackgroundImageFix" result="shape"/>
<feColorMatrix in="SourceAlpha" type="matrix" values="0 0 0 0 0 0 0 0 0 0 0 0 0 0 0 0 0 0 127 0" result="hardAlpha"/>
<feOffset dx="0.395593" dy="0.395593"/>
<feGaussianBlur stdDeviation="0.197797"/>
<feComposite in2="hardAlpha" operator="arithmetic" k2="-1" k3="1"/>
<feColorMatrix type="matrix" values="0 0 0 0 0 0 0 0 0 0 0 0 0 0 0 0 0 0 0.25 0"/>
<feBlend mode="normal" in2="shape" result="effect1_innerShadow"/>
</filter>
<filter id="filter8_i" x="178.5" y="85.0606" width="35.9752" height="67.7095" filterUnits="userSpaceOnUse" color-interpolation-filters="sRGB">
<feFlood flood-opacity="0" result="BackgroundImageFix"/>
<feBlend mode="normal" in="SourceGraphic" in2="BackgroundImageFix" result="shape"/>
<feColorMatrix in="SourceAlpha" type="matrix" values="0 0 0 0 0 0 0 0 0 0 0 0 0 0 0 0 0 0 127 0" result="hardAlpha"/>
<feOffset dx="0.395593" dy="0.395593"/>
<feGaussianBlur stdDeviation="0.197797"/>
<feComposite in2="hardAlpha" operator="arithmetic" k2="-1" k3="1"/>
<feColorMatrix type="matrix" values="0 0 0 0 0 0 0 0 0 0 0 0 0 0 0 0 0 0 0.25 0"/>
<feBlend mode="normal" in2="shape" result="effect1_innerShadow"/>
</filter>
<filter id="filter9_ii" x="126.527" y="27.6853" width="54.0975" height="15.7403" filterUnits="userSpaceOnUse" color-interpolation-filters="sRGB">
<feFlood flood-opacity="0" result="BackgroundImageFix"/>
<feBlend mode="normal" in="SourceGraphic" in2="BackgroundImageFix" result="shape"/>
<feColorMatrix in="SourceAlpha" type="matrix" values="0 0 0 0 0 0 0 0 0 0 0 0 0 0 0 0 0 0 127 0" result="hardAlpha"/>
<feOffset dx="-2.36178" dy="-2.36178"/>
<feGaussianBlur stdDeviation="2.36178"/>
<feComposite in2="hardAlpha" operator="arithmetic" k2="-1" k3="1"/>
<feColorMatrix type="matrix" values="0 0 0 0 0 0 0 0 0 0.113162 0 0 0 0 0.3375 0 0 0 0.22 0"/>
<feBlend mode="normal" in2="shape" result="effect1_innerShadow"/>
<feColorMatrix in="SourceAlpha" type="matrix" values="0 0 0 0 0 0 0 0 0 0 0 0 0 0 0 0 0 0 127 0" result="hardAlpha"/>
<feOffset dx="1.18089" dy="1.18089"/>
<feGaussianBlur stdDeviation="1.18089"/>
<feComposite in2="hardAlpha" operator="arithmetic" k2="-1" k3="1"/>
<feColorMatrix type="matrix" values="0 0 0 0 1 0 0 0 0 1 0 0 0 0 1 0 0 0 0.25 0"/>
<feBlend mode="normal" in2="effect1_innerShadow" result="effect2_innerShadow"/>
</filter>
</defs>
</svg>
