<svg width="128" height="136" viewBox="0 0 128 136" fill="none" xmlns="http://www.w3.org/2000/svg">
<g filter="url(#filter0_dii)">
<path d="M35.9371 14.8923C35.9371 13.5879 36.9945 12.5305 38.2989 12.5305H90.2584C91.5627 12.5305 92.6201 13.5879 92.6201 14.8923V123.535H38.2989C36.9945 123.535 35.9371 122.477 35.9371 121.173V14.8923Z" fill="#A7C2F8"/>
</g>
<g filter="url(#filter1_dii)">
<rect x="46.5657" y="18.4346" width="4.57364" height="99.1953" rx="1.18089" fill="white"/>
<rect x="38.8889" y="18.4357" width="4.57364" height="99.1953" rx="1.18089" fill="white"/>
<rect x="84.8695" y="18.4346" width="4.57364" height="99.1953" rx="1.18089" fill="white"/>
<rect x="69.5168" y="18.4346" width="4.57364" height="99.1953" rx="1.18089" fill="white"/>
<rect x="77.1931" y="18.4346" width="4.57364" height="99.1953" rx="1.18089" fill="white"/>
<rect x="54.2419" y="18.4346" width="4.57364" height="99.1953" rx="1.18089" fill="white"/>
<rect x="61.9133" y="18.4346" width="4.57364" height="99.1953" rx="1.18089" fill="white"/>
</g>
<g filter="url(#filter2_di)">
<path d="M0.77063 49.8543C0.77063 48.55 1.82804 47.4926 3.13241 47.4926H41.2536C42.558 47.4926 43.6154 48.55 43.6154 49.8543V127.374C43.6154 128.466 42.7298 129.352 41.6374 129.352H2.7486C1.6562 129.352 0.77063 128.466 0.77063 127.374V49.8543Z" fill="white"/>
</g>
<g filter="url(#filter3_di)">
<path d="M84.8691 49.8543C84.8691 48.55 85.9265 47.4926 87.2309 47.4926H125.352C126.656 47.4926 127.714 48.55 127.714 49.8543V127.374C127.714 128.466 126.828 129.352 125.736 129.352H86.8471C85.7547 129.352 84.8691 128.466 84.8691 127.374V49.8543Z" fill="white"/>
</g>
<g filter="url(#filter4_i)">
<path d="M41.34 47.523H3.34761L3.34732 46.1609C3.3469 44.2041 4.93314 42.6175 6.89 42.6175H37.7973C39.7539 42.6175 41.34 44.2036 41.34 46.1602V47.523Z" fill="#608CE6"/>
</g>
<g filter="url(#filter5_i)">
<path d="M125.44 47.523H87.4471L87.4468 46.1609C87.4464 44.2041 89.0326 42.6175 90.9895 42.6175H121.897C123.853 42.6175 125.44 44.2036 125.44 46.1602V47.523Z" fill="#608CE6"/>
</g>
<g filter="url(#filter6_i)">
<rect x="4.40137" y="55.3466" width="9.81744" height="4.10135" rx="2.05068" fill="#E1E1E1"/>
<rect x="4.40344" y="64.3771" width="9.81744" height="4.10135" rx="2.05068" fill="#E1E1E1"/>
<rect x="4.70264" y="82.4358" width="9.81744" height="4.10135" rx="2.05068" fill="#E1E1E1"/>
<rect x="4.40344" y="100.497" width="9.81744" height="4.10135" rx="2.05068" fill="#E1E1E1"/>
<rect x="4.40344" y="73.4064" width="9.81744" height="4.10135" rx="2.05068" fill="#E1E1E1"/>
<rect x="4.70264" y="91.4661" width="9.81744" height="4.10135" rx="2.05068" fill="#E1E1E1"/>
<rect x="4.40344" y="109.527" width="9.81744" height="4.10135" rx="2.05068" fill="#E1E1E1"/>
<rect x="4.40344" y="118.558" width="9.81744" height="4.10135" rx="2.05068" fill="#E1E1E1"/>
<rect x="17.1306" y="55.3458" width="9.81744" height="4.10135" rx="2.05068" fill="#E1E1E1"/>
<rect x="17.1306" y="64.3771" width="9.81744" height="4.10135" rx="2.05068" fill="#E1E1E1"/>
<rect x="17.4347" y="82.4358" width="9.81744" height="4.10135" rx="2.05068" fill="#E1E1E1"/>
<rect x="17.1306" y="100.497" width="9.81744" height="4.10135" rx="2.05068" fill="#E1E1E1"/>
<rect x="17.1306" y="73.4064" width="9.81744" height="4.10135" rx="2.05068" fill="#E1E1E1"/>
<rect x="17.4347" y="91.4661" width="9.81744" height="4.10135" rx="2.05068" fill="#E1E1E1"/>
<rect x="17.1306" y="109.527" width="9.81744" height="4.10135" rx="2.05068" fill="#E1E1E1"/>
<rect x="17.1306" y="118.558" width="9.81744" height="4.10135" rx="2.05068" fill="#E1E1E1"/>
<rect x="29.8646" y="55.3458" width="9.81744" height="4.10135" rx="2.05068" fill="#E1E1E1"/>
<rect x="29.8646" y="64.3771" width="9.81744" height="4.10135" rx="2.05068" fill="#E1E1E1"/>
<rect x="30.1637" y="82.4358" width="9.81744" height="4.10135" rx="2.05068" fill="#E1E1E1"/>
<rect x="29.8646" y="100.497" width="9.81744" height="4.10135" rx="2.05068" fill="#E1E1E1"/>
<rect x="29.8646" y="73.4064" width="9.81744" height="4.10135" rx="2.05068" fill="#E1E1E1"/>
<rect x="30.1637" y="91.4661" width="9.81744" height="4.10135" rx="2.05068" fill="#E1E1E1"/>
<rect x="29.8646" y="109.527" width="9.81744" height="4.10135" rx="2.05068" fill="#E1E1E1"/>
<rect x="29.8646" y="118.558" width="9.81744" height="4.10135" rx="2.05068" fill="#E1E1E1"/>
</g>
<g filter="url(#filter7_i)">
<rect x="88.4999" y="55.3466" width="9.81744" height="4.10135" rx="2.05068" fill="#E1E1E1"/>
<rect x="88.5018" y="64.3771" width="9.81744" height="4.10135" rx="2.05068" fill="#E1E1E1"/>
<rect x="88.802" y="82.4358" width="9.81744" height="4.10135" rx="2.05068" fill="#E1E1E1"/>
<rect x="88.5018" y="100.497" width="9.81744" height="4.10135" rx="2.05068" fill="#E1E1E1"/>
<rect x="88.5018" y="73.4064" width="9.81744" height="4.10135" rx="2.05068" fill="#E1E1E1"/>
<rect x="88.802" y="91.4661" width="9.81744" height="4.10135" rx="2.05068" fill="#E1E1E1"/>
<rect x="88.5018" y="109.527" width="9.81744" height="4.10135" rx="2.05068" fill="#E1E1E1"/>
<rect x="88.5018" y="118.558" width="9.81744" height="4.10135" rx="2.05068" fill="#E1E1E1"/>
<rect x="101.23" y="55.3458" width="9.81744" height="4.10135" rx="2.05068" fill="#E1E1E1"/>
<rect x="101.23" y="64.3771" width="9.81744" height="4.10135" rx="2.05068" fill="#E1E1E1"/>
<rect x="101.533" y="82.4358" width="9.81744" height="4.10135" rx="2.05068" fill="#E1E1E1"/>
<rect x="101.23" y="100.497" width="9.81744" height="4.10135" rx="2.05068" fill="#E1E1E1"/>
<rect x="101.23" y="73.4064" width="9.81744" height="4.10135" rx="2.05068" fill="#E1E1E1"/>
<rect x="101.533" y="91.4661" width="9.81744" height="4.10135" rx="2.05068" fill="#E1E1E1"/>
<rect x="101.23" y="109.527" width="9.81744" height="4.10135" rx="2.05068" fill="#E1E1E1"/>
<rect x="101.23" y="118.558" width="9.81744" height="4.10135" rx="2.05068" fill="#E1E1E1"/>
<rect x="113.963" y="55.3458" width="9.81744" height="4.10135" rx="2.05068" fill="#E1E1E1"/>
<rect x="113.963" y="64.3771" width="9.81744" height="4.10135" rx="2.05068" fill="#E1E1E1"/>
<rect x="114.262" y="82.4358" width="9.81744" height="4.10135" rx="2.05068" fill="#E1E1E1"/>
<rect x="113.963" y="100.497" width="9.81744" height="4.10135" rx="2.05068" fill="#E1E1E1"/>
<rect x="113.963" y="73.4064" width="9.81744" height="4.10135" rx="2.05068" fill="#E1E1E1"/>
<rect x="114.262" y="91.4661" width="9.81744" height="4.10135" rx="2.05068" fill="#E1E1E1"/>
<rect x="113.963" y="109.527" width="9.81744" height="4.10135" rx="2.05068" fill="#E1E1E1"/>
<rect x="113.963" y="118.558" width="9.81744" height="4.10135" rx="2.05068" fill="#E1E1E1"/>
</g>
<g filter="url(#filter8_ii)">
<path d="M42.2911 1.96982C42.6055 0.993866 43.5137 0.332275 44.5391 0.332275H84.3729C85.4427 0.332275 86.3788 1.05127 86.6548 2.08479L89.4437 12.5299H38.8889L42.2911 1.96982Z" fill="#6491EB"/>
</g>
<path d="M65.0745 10.6128V7.61281C65.0745 7.44525 65.2103 7.30942 65.3778 7.30942H68.3255C68.493 7.30942 68.6288 7.17359 68.6288 7.00603V5.79805C68.6288 5.6305 68.493 5.49467 68.3255 5.49467H65.3778C65.2103 5.49467 65.0745 5.35884 65.0745 5.19128V2.23881C65.0745 2.07126 64.9386 1.93542 64.7711 1.93542H63.5519C63.3843 1.93542 63.2485 2.07126 63.2485 2.23881V5.19128C63.2485 5.35884 63.1126 5.49467 62.9451 5.49467H60.0066C59.8391 5.49467 59.7032 5.6305 59.7032 5.79805V7.00603C59.7032 7.17359 59.8391 7.30942 60.0066 7.30942H62.9451C63.1126 7.30942 63.2485 7.44525 63.2485 7.61281V10.5685C63.2485 10.7317 63.3777 10.8657 63.5408 10.8716L64.76 10.9159C64.9318 10.9222 65.0745 10.7846 65.0745 10.6128Z" fill="white"/>
<defs>
<filter id="filter0_dii" x="31.9812" y="10.5526" width="64.5949" height="120.894" filterUnits="userSpaceOnUse" color-interpolation-filters="sRGB">
<feFlood flood-opacity="0" result="BackgroundImageFix"/>
<feColorMatrix in="SourceAlpha" type="matrix" values="0 0 0 0 0 0 0 0 0 0 0 0 0 0 0 0 0 0 127 0"/>
<feOffset dy="3.95593"/>
<feGaussianBlur stdDeviation="1.97797"/>
<feColorMatrix type="matrix" values="0 0 0 0 0 0 0 0 0 0 0 0 0 0 0 0 0 0 0.18 0"/>
<feBlend mode="normal" in2="BackgroundImageFix" result="effect1_dropShadow"/>
<feBlend mode="normal" in="SourceGraphic" in2="effect1_dropShadow" result="shape"/>
<feColorMatrix in="SourceAlpha" type="matrix" values="0 0 0 0 0 0 0 0 0 0 0 0 0 0 0 0 0 0 127 0" result="hardAlpha"/>
<feOffset dx="-1.97797" dy="-1.97797"/>
<feGaussianBlur stdDeviation="1.97797"/>
<feComposite in2="hardAlpha" operator="arithmetic" k2="-1" k3="1"/>
<feColorMatrix type="matrix" values="0 0 0 0 0 0 0 0 0 0 0 0 0 0 0 0 0 0 0.2 0"/>
<feBlend mode="normal" in2="shape" result="effect2_innerShadow"/>
<feColorMatrix in="SourceAlpha" type="matrix" values="0 0 0 0 0 0 0 0 0 0 0 0 0 0 0 0 0 0 127 0" result="hardAlpha"/>
<feOffset dx="1.97797" dy="1.97797"/>
<feGaussianBlur stdDeviation="1.97797"/>
<feComposite in2="hardAlpha" operator="arithmetic" k2="-1" k3="1"/>
<feColorMatrix type="matrix" values="0 0 0 0 1 0 0 0 0 1 0 0 0 0 1 0 0 0 0.44 0"/>
<feBlend mode="normal" in2="effect2_innerShadow" result="effect3_innerShadow"/>
</filter>
<filter id="filter1_dii" x="30.977" y="16.4566" width="66.6023" height="116.998" filterUnits="userSpaceOnUse" color-interpolation-filters="sRGB">
<feFlood flood-opacity="0" result="BackgroundImageFix"/>
<feColorMatrix in="SourceAlpha" type="matrix" values="0 0 0 0 0 0 0 0 0 0 0 0 0 0 0 0 0 0 127 0"/>
<feOffset dy="7.91187"/>
<feGaussianBlur stdDeviation="3.95593"/>
<feColorMatrix type="matrix" values="0 0 0 0 0 0 0 0 0 0 0 0 0 0 0 0 0 0 0.25 0"/>
<feBlend mode="normal" in2="BackgroundImageFix" result="effect1_dropShadow"/>
<feBlend mode="normal" in="SourceGraphic" in2="effect1_dropShadow" result="shape"/>
<feColorMatrix in="SourceAlpha" type="matrix" values="0 0 0 0 0 0 0 0 0 0 0 0 0 0 0 0 0 0 127 0" result="hardAlpha"/>
<feOffset dx="1.97797" dy="1.97797"/>
<feGaussianBlur stdDeviation="0.590446"/>
<feComposite in2="hardAlpha" operator="arithmetic" k2="-1" k3="1"/>
<feColorMatrix type="matrix" values="0 0 0 0 0 0 0 0 0 0 0 0 0 0 0 0 0 0 0.14 0"/>
<feBlend mode="normal" in2="shape" result="effect2_innerShadow"/>
<feColorMatrix in="SourceAlpha" type="matrix" values="0 0 0 0 0 0 0 0 0 0 0 0 0 0 0 0 0 0 127 0" result="hardAlpha"/>
<feOffset dx="-1.97797" dy="-1.97797"/>
<feGaussianBlur stdDeviation="1.18089"/>
<feComposite in2="hardAlpha" operator="arithmetic" k2="-1" k3="1"/>
<feColorMatrix type="matrix" values="0 0 0 0 1 0 0 0 0 1 0 0 0 0 1 0 0 0 0.88 0"/>
<feBlend mode="normal" in2="effect2_innerShadow" result="effect3_innerShadow"/>
</filter>
<filter id="filter2_di" x="-1.20734" y="42.769" width="60.1743" height="91.3064" filterUnits="userSpaceOnUse" color-interpolation-filters="sRGB">
<feFlood flood-opacity="0" result="BackgroundImageFix"/>
<feColorMatrix in="SourceAlpha" type="matrix" values="0 0 0 0 0 0 0 0 0 0 0 0 0 0 0 0 0 0 127 0"/>
<feOffset dx="10.628"/>
<feGaussianBlur stdDeviation="2.36178"/>
<feColorMatrix type="matrix" values="0 0 0 0 0 0 0 0 0 0 0 0 0 0 0 0 0 0 0.25 0"/>
<feBlend mode="normal" in2="BackgroundImageFix" result="effect1_dropShadow"/>
<feBlend mode="normal" in="SourceGraphic" in2="effect1_dropShadow" result="shape"/>
<feColorMatrix in="SourceAlpha" type="matrix" values="0 0 0 0 0 0 0 0 0 0 0 0 0 0 0 0 0 0 127 0" result="hardAlpha"/>
<feOffset dx="-1.97797" dy="-1.97797"/>
<feGaussianBlur stdDeviation="1.97797"/>
<feComposite in2="hardAlpha" operator="arithmetic" k2="-1" k3="1"/>
<feColorMatrix type="matrix" values="0 0 0 0 0 0 0 0 0 0 0 0 0 0 0 0 0 0 0.16 0"/>
<feBlend mode="normal" in2="shape" result="effect2_innerShadow"/>
</filter>
<filter id="filter3_di" x="69.0454" y="41.5587" width="58.6685" height="93.7271" filterUnits="userSpaceOnUse" color-interpolation-filters="sRGB">
<feFlood flood-opacity="0" result="BackgroundImageFix"/>
<feColorMatrix in="SourceAlpha" type="matrix" values="0 0 0 0 0 0 0 0 0 0 0 0 0 0 0 0 0 0 127 0"/>
<feOffset dx="-9.88983"/>
<feGaussianBlur stdDeviation="2.96695"/>
<feColorMatrix type="matrix" values="0 0 0 0 0 0 0 0 0 0 0 0 0 0 0 0 0 0 0.25 0"/>
<feBlend mode="normal" in2="BackgroundImageFix" result="effect1_dropShadow"/>
<feBlend mode="normal" in="SourceGraphic" in2="effect1_dropShadow" result="shape"/>
<feColorMatrix in="SourceAlpha" type="matrix" values="0 0 0 0 0 0 0 0 0 0 0 0 0 0 0 0 0 0 127 0" result="hardAlpha"/>
<feOffset dx="-1.97797" dy="-1.97797"/>
<feGaussianBlur stdDeviation="1.97797"/>
<feComposite in2="hardAlpha" operator="arithmetic" k2="-1" k3="1"/>
<feColorMatrix type="matrix" values="0 0 0 0 0 0 0 0 0 0 0 0 0 0 0 0 0 0 0.16 0"/>
<feBlend mode="normal" in2="shape" result="effect2_innerShadow"/>
</filter>
<filter id="filter4_i" x="0.985506" y="40.2557" width="40.3545" height="7.26726" filterUnits="userSpaceOnUse" color-interpolation-filters="sRGB">
<feFlood flood-opacity="0" result="BackgroundImageFix"/>
<feBlend mode="normal" in="SourceGraphic" in2="BackgroundImageFix" result="shape"/>
<feColorMatrix in="SourceAlpha" type="matrix" values="0 0 0 0 0 0 0 0 0 0 0 0 0 0 0 0 0 0 127 0" result="hardAlpha"/>
<feOffset dx="-2.36178" dy="-2.36178"/>
<feGaussianBlur stdDeviation="1.77134"/>
<feComposite in2="hardAlpha" operator="arithmetic" k2="-1" k3="1"/>
<feColorMatrix type="matrix" values="0 0 0 0 0 0 0 0 0 0 0 0 0 0 0 0 0 0 0.27 0"/>
<feBlend mode="normal" in2="shape" result="effect1_innerShadow"/>
</filter>
<filter id="filter5_i" x="85.085" y="40.2557" width="40.3545" height="7.26726" filterUnits="userSpaceOnUse" color-interpolation-filters="sRGB">
<feFlood flood-opacity="0" result="BackgroundImageFix"/>
<feBlend mode="normal" in="SourceGraphic" in2="BackgroundImageFix" result="shape"/>
<feColorMatrix in="SourceAlpha" type="matrix" values="0 0 0 0 0 0 0 0 0 0 0 0 0 0 0 0 0 0 127 0" result="hardAlpha"/>
<feOffset dx="-2.36178" dy="-2.36178"/>
<feGaussianBlur stdDeviation="1.77134"/>
<feComposite in2="hardAlpha" operator="arithmetic" k2="-1" k3="1"/>
<feColorMatrix type="matrix" values="0 0 0 0 0 0 0 0 0 0 0 0 0 0 0 0 0 0 0.27 0"/>
<feBlend mode="normal" in2="shape" result="effect1_innerShadow"/>
</filter>
<filter id="filter6_i" x="4.40137" y="55.3458" width="35.9754" height="67.7095" filterUnits="userSpaceOnUse" color-interpolation-filters="sRGB">
<feFlood flood-opacity="0" result="BackgroundImageFix"/>
<feBlend mode="normal" in="SourceGraphic" in2="BackgroundImageFix" result="shape"/>
<feColorMatrix in="SourceAlpha" type="matrix" values="0 0 0 0 0 0 0 0 0 0 0 0 0 0 0 0 0 0 127 0" result="hardAlpha"/>
<feOffset dx="0.395593" dy="0.395593"/>
<feGaussianBlur stdDeviation="0.197797"/>
<feComposite in2="hardAlpha" operator="arithmetic" k2="-1" k3="1"/>
<feColorMatrix type="matrix" values="0 0 0 0 0 0 0 0 0 0 0 0 0 0 0 0 0 0 0.25 0"/>
<feBlend mode="normal" in2="shape" result="effect1_innerShadow"/>
</filter>
<filter id="filter7_i" x="88.4999" y="55.3458" width="35.9752" height="67.7095" filterUnits="userSpaceOnUse" color-interpolation-filters="sRGB">
<feFlood flood-opacity="0" result="BackgroundImageFix"/>
<feBlend mode="normal" in="SourceGraphic" in2="BackgroundImageFix" result="shape"/>
<feColorMatrix in="SourceAlpha" type="matrix" values="0 0 0 0 0 0 0 0 0 0 0 0 0 0 0 0 0 0 127 0" result="hardAlpha"/>
<feOffset dx="0.395593" dy="0.395593"/>
<feGaussianBlur stdDeviation="0.197797"/>
<feComposite in2="hardAlpha" operator="arithmetic" k2="-1" k3="1"/>
<feColorMatrix type="matrix" values="0 0 0 0 0 0 0 0 0 0 0 0 0 0 0 0 0 0 0.25 0"/>
<feBlend mode="normal" in2="shape" result="effect1_innerShadow"/>
</filter>
<filter id="filter8_ii" x="36.5271" y="-2.02951" width="54.0975" height="15.7403" filterUnits="userSpaceOnUse" color-interpolation-filters="sRGB">
<feFlood flood-opacity="0" result="BackgroundImageFix"/>
<feBlend mode="normal" in="SourceGraphic" in2="BackgroundImageFix" result="shape"/>
<feColorMatrix in="SourceAlpha" type="matrix" values="0 0 0 0 0 0 0 0 0 0 0 0 0 0 0 0 0 0 127 0" result="hardAlpha"/>
<feOffset dx="-2.36178" dy="-2.36178"/>
<feGaussianBlur stdDeviation="2.36178"/>
<feComposite in2="hardAlpha" operator="arithmetic" k2="-1" k3="1"/>
<feColorMatrix type="matrix" values="0 0 0 0 0 0 0 0 0 0.113162 0 0 0 0 0.3375 0 0 0 0.22 0"/>
<feBlend mode="normal" in2="shape" result="effect1_innerShadow"/>
<feColorMatrix in="SourceAlpha" type="matrix" values="0 0 0 0 0 0 0 0 0 0 0 0 0 0 0 0 0 0 127 0" result="hardAlpha"/>
<feOffset dx="1.18089" dy="1.18089"/>
<feGaussianBlur stdDeviation="1.18089"/>
<feComposite in2="hardAlpha" operator="arithmetic" k2="-1" k3="1"/>
<feColorMatrix type="matrix" values="0 0 0 0 1 0 0 0 0 1 0 0 0 0 1 0 0 0 0.25 0"/>
<feBlend mode="normal" in2="effect1_innerShadow" result="effect2_innerShadow"/>
</filter>
</defs>
</svg>
