<svg width="44" height="89" viewBox="0 0 44 89" fill="none" xmlns="http://www.w3.org/2000/svg">
<path fill-rule="evenodd" clip-rule="evenodd" d="M10.3494 88.2441H34.2621L32.9815 85.6933C33.5746 85.3445 34.4086 84.496 35.0054 83.9776C35.7968 83.2902 36.5619 84.6355 37.4827 82.8302C38.7422 82.8746 39.5634 82.7594 39.761 81.5634C40.7562 81.3472 41.1342 81.0388 41.3634 80.1566L41.4981 79.7177C42.12 79.5777 42.8266 79.4593 42.9038 78.8973C43.0215 78.0394 41.8754 78.2051 41.2791 78.228C41.449 77.786 41.7152 77.4354 41.9598 76.9914C42.6913 75.6635 43.1804 74.1107 43.4779 72.5714C43.9299 70.2322 43.8714 67.6554 43.4095 65.3185C42.7549 62.0054 40.8699 58.6846 38.852 56.1366C38.5734 55.7847 38.1491 55.3659 38.0067 55.0433C38.2628 54.8386 38.4923 54.7294 38.5198 54.3073C38.5586 53.7133 38.2352 53.8245 38.0454 53.3958C37.6089 52.4096 38.7354 52.7059 38.569 51.4974C38.3164 51.238 38.1828 51.2932 38.0491 51.0006C37.9149 50.7066 37.9909 50.3042 37.928 49.9609C37.7756 49.1287 37.2102 49.4903 36.5677 49.1504C35.955 48.8264 36.0614 48.1115 35.6225 47.9127C35.1921 47.7178 34.0281 47.8974 33.5048 47.8887C33.1017 47.5108 33.0398 47.546 32.5868 47.2215C32.5701 45.6736 32.5262 44.5514 31.6688 43.2255C31.4422 42.875 31.0077 42.4807 30.9145 42.3224C30.8396 42.1952 30.6117 40.9321 30.13 39.8694C29.7854 39.1091 29.3979 38.3491 29.0061 37.6621C27.0468 34.227 25.2612 32.0312 25.4233 28.1361C25.8984 27.8074 26.274 27.9071 26.4613 27.3143C26.6314 26.7758 26.48 26.2768 26.7167 25.7119C27.0512 25.6206 27.6203 25.6415 27.9442 25.4716C28.3621 25.2523 28.2863 24.8033 28.4482 24.4096C28.9201 24.2193 29.3023 24.3887 29.4175 24.0374C29.5485 23.6384 29.001 22.8007 29.8525 22.8291C30.1247 22.8381 30.9051 23.3466 31.3058 22.8952C31.6882 22.3951 31.3255 21.0567 31.3782 20.3703C32.7343 20.2242 33.1544 19.7291 34.1155 19.2891C33.8228 19.9513 33.5008 20.1664 33.1926 20.6292C35.5288 19.6551 36.9232 16.3721 36.6607 13.4701C36.6165 12.982 36.542 12.4362 36.4449 11.9317C36.3603 11.4923 36.1985 11.1823 36.3239 11.0099C36.7905 10.3684 36.32 11.4947 36.4963 10.8298C35.9101 10.1329 35.177 8.81935 34.0815 7.5343C31.6459 4.67701 28.1009 0.978059 23.7494 0.720006C20.1718 0.50784 17.1438 2.11913 15.3832 3.77804C13.7145 5.35046 12.16 8.11111 11.109 10.9562C7.47933 20.7817 0.420323 35.9858 0.710562 46.5172C1.03395 45.6656 1.01334 41.7791 1.90876 39.837C2.0179 41.7262 1.69632 44.0457 1.72735 46.0743C1.74901 47.49 2.02886 49.1842 0.517433 50.2738C0.307416 50.4252 0.238133 50.3817 0.114464 50.6195C1.13953 50.4507 2.27175 49.0844 2.69735 47.9776L2.93813 47.4591C2.94808 47.4423 2.968 47.4107 2.98498 47.388C3.54952 48.5089 2.98736 50.6243 2.70915 51.6706C2.90451 51.3984 3.25633 50.9015 3.56376 50.7813C3.59521 51.9826 3.49928 52.0541 3.28731 53.0643C4.52316 52.0896 5.75017 47.7041 5.83654 45.4741C6.24374 48.8938 6.47184 57.2401 6.36735 60.7794C6.28304 63.6352 7.25072 64.1017 9.53761 65.5642C10.5891 66.2366 13.5855 68.0401 14.3562 68.638C13.6521 69.0989 13.9148 68.9823 13.887 69.8543C13.8203 71.9491 10.9223 74.9543 9.92346 78.6991C8.83527 82.7789 8.63198 84.7736 10.3494 88.2441Z" fill="white"/>
<path fill-rule="evenodd" clip-rule="evenodd" d="M10.183 36.9722L8.18321 32.0893C8.00776 34.506 8.16196 35.0645 9.30979 36.1228C9.69188 36.475 9.87885 36.6725 10.183 36.9722Z" fill="#FF7CA9"/>
<g filter="url(#filter0_dii)">
<path fill-rule="evenodd" clip-rule="evenodd" d="M32.9697 75.9303C33.099 75.8652 33.3677 75.6329 33.4974 75.5269C34.3288 74.8464 35.2656 74.1071 36.0415 73.3915L37.0406 72.4916C37.8316 71.7947 39.1599 70.4223 39.7387 69.5466C41.2277 67.2931 40.1843 64.1685 38.0406 63.1529C36.5751 62.4583 34.9687 62.7351 33.8014 63.7982C33.6272 63.9568 33.4795 64.1226 33.3519 64.2843L32.953 64.8557L32.5646 64.3021C31.4149 62.8872 29.593 62.3417 27.8799 63.1602C26.3955 63.8693 25.0626 65.8287 25.6058 68.214C25.8222 69.1653 26.3655 69.9337 26.9945 70.5995C28.1306 71.8025 28.5973 72.2784 29.8617 73.374L31.9053 75.1004C32.0726 75.2367 32.2501 75.3743 32.4252 75.5169C32.5687 75.6336 32.8304 75.8583 32.9702 75.9308L32.9697 75.9303Z" fill="#FF2525"/>
</g>
<g filter="url(#filter1_f)">
<path d="M13.9654 66.434C13.1217 67.1999 13.1315 68.1833 13.0433 68.0862C12.9552 67.9891 12.8153 66.9225 13.659 66.1566C14.5027 65.3907 15.7821 65.5485 15.8703 65.6456C15.9584 65.7427 14.8091 65.6681 13.9654 66.434Z" fill="white"/>
</g>
<defs>
<filter id="filter0_dii" x="23.1445" y="61.6027" width="19.6301" height="19.003" filterUnits="userSpaceOnUse" color-interpolation-filters="sRGB">
<feFlood flood-opacity="0" result="BackgroundImageFix"/>
<feColorMatrix in="SourceAlpha" type="matrix" values="0 0 0 0 0 0 0 0 0 0 0 0 0 0 0 0 0 0 127 0"/>
<feOffset dy="2.33747"/>
<feGaussianBlur stdDeviation="1.16874"/>
<feColorMatrix type="matrix" values="0 0 0 0 0 0 0 0 0 0 0 0 0 0 0 0 0 0 0.24 0"/>
<feBlend mode="normal" in2="BackgroundImageFix" result="effect1_dropShadow"/>
<feBlend mode="normal" in="SourceGraphic" in2="effect1_dropShadow" result="shape"/>
<feColorMatrix in="SourceAlpha" type="matrix" values="0 0 0 0 0 0 0 0 0 0 0 0 0 0 0 0 0 0 127 0" result="hardAlpha"/>
<feOffset dx="-1.16874" dy="-1.16874"/>
<feGaussianBlur stdDeviation="0.584368"/>
<feComposite in2="hardAlpha" operator="arithmetic" k2="-1" k3="1"/>
<feColorMatrix type="matrix" values="0 0 0 0 0.295833 0 0 0 0 0 0 0 0 0 0 0 0 0 0.29 0"/>
<feBlend mode="normal" in2="shape" result="effect2_innerShadow"/>
<feColorMatrix in="SourceAlpha" type="matrix" values="0 0 0 0 0 0 0 0 0 0 0 0 0 0 0 0 0 0 127 0" result="hardAlpha"/>
<feOffset dx="1.16874" dy="1.16874"/>
<feGaussianBlur stdDeviation="0.584368"/>
<feComposite in2="hardAlpha" operator="arithmetic" k2="-1" k3="1"/>
<feColorMatrix type="matrix" values="0 0 0 0 1 0 0 0 0 1 0 0 0 0 1 0 0 0 0.25 0"/>
<feBlend mode="normal" in2="effect2_innerShadow" result="effect3_innerShadow"/>
</filter>
<filter id="filter1_f" x="11.8074" y="64.3939" width="5.23637" height="4.8677" filterUnits="userSpaceOnUse" color-interpolation-filters="sRGB">
<feFlood flood-opacity="0" result="BackgroundImageFix"/>
<feBlend mode="normal" in="SourceGraphic" in2="BackgroundImageFix" result="shape"/>
<feGaussianBlur stdDeviation="0.584368" result="effect1_foregroundBlur"/>
</filter>
</defs>
</svg>
