<svg width="111" height="28" viewBox="0 0 111 28" fill="none" xmlns="http://www.w3.org/2000/svg">
<path fill-rule="evenodd" clip-rule="evenodd" d="M59.2788 27.5745C60.263 27.5745 61.0653 26.7373 61.0653 25.6716V10.3357C61.0653 9.30821 60.263 8.47093 59.2788 8.47093C58.2578 8.47093 57.4555 9.30821 57.4555 10.3357V25.6716C57.4555 26.7373 58.2578 27.5745 59.2788 27.5745ZM59.2788 4.66551C59.7525 4.66551 60.227 4.47522 60.5548 4.13273C60.8826 3.79025 61.0653 3.29559 61.0653 2.80079C61.0653 2.30599 60.8826 1.81132 60.5548 1.46884C60.227 1.12623 59.7525 0.897949 59.2788 0.897949C58.8044 0.897949 58.3306 1.12623 58.0028 1.46884C57.6743 1.81132 57.4555 2.30599 57.4555 2.80079C57.4555 3.29545 57.6743 3.79025 58.0028 4.13273C58.3306 4.47522 58.8044 4.66551 59.2788 4.66551ZM22.2359 8.43347C22.0118 8.43347 20.4433 8.31664 20.3312 9.25222L20.3039 18.441C20.3039 19.6107 20.2937 20.9329 20.3039 21.0141L20.303 23.2362V25.6339C20.303 26.6994 21.2233 27.5634 22.2077 27.5634C23.2286 27.5634 24.0008 26.6994 24.0008 25.6339V18.2072C24.0008 15.0105 25.42 12.2426 28.4825 12.2426C31.545 12.2426 32.9647 14.5427 32.9647 17.7394V25.6339C32.9647 26.6994 33.7691 27.5634 34.7536 27.5634C35.7744 27.5634 36.4344 26.6994 36.4344 25.6339V21.8327V17.9733C36.4344 12.6836 33.3262 8.54505 28.4826 8.38314C26.4939 8.31677 25.3733 8.73403 23.6927 9.25235C23.4686 8.61707 23.0677 8.4336 22.2361 8.4336L22.2359 8.43347ZM44.616 23.7691H52.3453C53.3295 23.7691 54.1317 24.6062 54.1317 25.6338C54.1317 26.6611 53.3294 27.5365 52.3453 27.5365H41.0062C40.3136 27.5365 39.6571 27.1179 39.3656 26.4711C39.0378 25.786 39.1107 25.0248 39.5483 24.4542L48.6625 12.2005H40.9332C39.949 12.2005 39.1467 11.3252 39.1467 10.2978C39.1467 9.27036 39.949 8.43321 40.9332 8.43321H52.2721C52.9649 8.43321 53.6212 8.81367 53.9127 9.49864C54.2406 10.1456 54.1677 10.9068 53.7301 11.4774L44.616 23.7692V23.7691ZM64.926 9.25222C65.0381 8.31664 66.257 8.43347 66.7188 8.43347C67.3911 8.43347 68.2874 8.31664 68.3995 9.25222C69.632 8.85993 70.7526 8.55044 72.1955 8.50904C74.3829 8.50904 76.352 9.49837 77.7008 11.1348C79.0497 9.4985 81.0189 8.50904 83.2059 8.50904C87.2526 8.50904 90.5345 11.934 90.5345 16.12C90.5345 16.1961 90.5345 16.2341 90.4978 16.2722C90.5345 16.3483 90.5345 16.3864 90.5345 16.4625V25.7098C90.5345 26.7752 89.6955 27.6126 88.7113 27.6126C87.727 27.6126 86.9249 26.7752 86.9249 25.7098V16.4625V16.2722V16.12C86.9249 13.9889 85.2474 12.2763 83.206 12.2763C81.1641 12.2763 79.4875 13.9889 79.4875 16.12V25.7098C79.4875 26.7752 78.6852 27.6126 77.7009 27.6126C76.7167 27.6126 75.8778 26.7752 75.8778 25.7098V16.12C75.8778 13.9889 74.2372 12.2763 72.1956 12.2763C70.2094 12.2763 68.5682 13.897 68.4806 15.947V20.4424C68.4806 20.4833 68.4792 20.5239 68.4769 20.5641V25.7099C68.4769 26.7753 67.6746 27.6127 66.6905 27.6127C65.6695 27.6127 64.8672 26.7753 64.8672 25.7099V20.5639C64.8647 20.5238 64.8637 20.4833 64.8637 20.4424L64.9262 9.25222H64.926ZM101.714 27.5365C106.782 27.5365 110.866 23.2364 110.866 17.9847C110.866 12.695 106.782 8.43295 101.714 8.43295C96.6829 8.43295 92.5627 12.695 92.5627 17.9847C92.5627 23.2363 96.6829 27.5365 101.714 27.5365ZM101.714 12.2004C104.777 12.2004 107.256 14.7882 107.256 17.9847C107.256 21.1433 104.777 23.7691 101.714 23.7691C98.6513 23.7691 96.1725 21.1433 96.1725 17.9847C96.1725 14.7882 98.6513 12.2004 101.714 12.2004Z" fill="url(#paint0_linear)"/>
<path d="M9.92866 27.4231C8.27322 27.4491 6.71384 26.9006 5.37645 26.0461C4.03225 25.1872 2.96921 24.0397 2.18026 22.6065C1.39145 21.1672 1 19.5937 1 17.88C1 16.2455 1.37395 14.7392 2.12184 13.3486C2.86986 11.9642 3.88066 10.842 5.16014 10.0004C6.43974 9.15274 7.8654 8.73193 9.43724 8.73193C10.8862 8.73193 12.2184 9.10399 13.4338 9.854C14.6491 10.6042 15.6249 11.6165 16.3612 12.8851C17.0974 14.1537 17.4655 15.5624 17.4655 17.1116C17.4655 17.6605 17.372 18.1301 17.185 18.5203C16.998 18.9168 16.6533 19.1119 16.1508 19.1119H3.68789C3.86895 20.0999 4.24289 21.0148 4.80973 21.8564C5.37657 22.6919 6.08871 23.3702 6.94829 23.8812C7.81239 24.3948 9.02451 24.645 10.0878 24.645C13.4755 24.645 13.9983 23.3098 14.7047 22.8113C15.219 22.4486 15.9633 22.3451 16.3548 22.7531C17.0974 23.527 16.7203 24.4161 15.9458 25.2472C14.3055 27.0079 12.1032 27.3888 9.92879 27.4232L9.92866 27.4231ZM14.8478 16.465C14.7484 15.5379 14.4446 14.6903 13.9422 13.9219C13.4397 13.1534 12.8029 12.5435 12.0258 12.0922C11.2486 11.6349 10.3897 11.4092 9.45487 11.4092C8.485 11.4092 7.60263 11.6409 6.80211 12.1044C6.00171 12.574 5.34144 13.1839 4.80973 13.9463C4.27802 14.7087 3.91578 15.5503 3.72302 16.4651H14.8479L14.8478 16.465Z" fill="#042D48" stroke="#042D48" stroke-width="1.07808" stroke-miterlimit="22.9256"/>
<defs>
<linearGradient id="paint0_linear" x1="20.4881" y1="14.2307" x2="111.017" y2="14.2307" gradientUnits="userSpaceOnUse">
<stop stop-color="#042D48"/>
<stop offset="1" stop-color="#042D48"/>
</linearGradient>
</defs>
</svg>
