<svg width="45" height="44" viewBox="0 0 45 44" fill="none" xmlns="http://www.w3.org/2000/svg">
<g filter="url(#filter0_i)">
<path d="M22.0422 43.9396C34.1895 43.9396 44.0369 34.1034 44.0369 21.9698C44.0369 9.83621 34.1895 0 22.0422 0C9.89482 0 0.0474548 9.83621 0.0474548 21.9698C0.0474548 34.1034 9.89482 43.9396 22.0422 43.9396Z" fill="#F3F8FF"/>
</g>
<g filter="url(#filter1_d)">
<path fill-rule="evenodd" clip-rule="evenodd" d="M9.32384 20.3542C5.17511 19.642 1.45238 22.3929 0.046875 23.1138C0.109749 23.9312 0.445059 26.8656 0.948016 28.3538C1.81932 30.9318 4.42259 36.4297 9.07156 39.8538C13.7205 43.2779 20.8201 44.7921 26.8745 43.4582C32.9289 42.1247 37.2896 38.0156 39.7042 35.0239C41.6358 32.6307 42.8838 29.0262 43.2803 27.5364C43.2592 27.3686 42.3238 23.0167 40.7132 18.8403C38.7671 13.7942 36.1364 11.4513 35.2715 10.8025C33.7483 9.66005 32.7127 9.3968 31.6317 9.50494C31.1871 9.58904 30.0748 10.0095 29.181 11.0188C28.0637 12.2803 27.5592 13.1814 25.1447 16.5695C24.1356 17.9856 19.811 20.0297 18.8019 20.3542C17.6781 20.7154 14.153 21.1831 9.32384 20.3542Z" fill="#A8DBFF" fill-opacity="0.5"/>
<path fill-rule="evenodd" clip-rule="evenodd" d="M9.32384 20.3542C5.17511 19.642 1.45238 22.3929 0.046875 23.1138C0.109749 23.9312 0.445059 26.8656 0.948016 28.3538C1.81932 30.9318 4.42259 36.4297 9.07156 39.8538C13.7205 43.2779 20.8201 44.7921 26.8745 43.4582C32.9289 42.1247 37.2896 38.0156 39.7042 35.0239C41.6358 32.6307 42.8838 29.0262 43.2803 27.5364C43.2592 27.3686 42.3238 23.0167 40.7132 18.8403C38.7671 13.7942 36.1364 11.4513 35.2715 10.8025C33.7483 9.66005 32.7127 9.3968 31.6317 9.50494C31.1871 9.58904 30.0748 10.0095 29.181 11.0188C28.0637 12.2803 27.5592 13.1814 25.1447 16.5695C24.1356 17.9856 19.811 20.0297 18.8019 20.3542C17.6781 20.7154 14.153 21.1831 9.32384 20.3542Z" fill="url(#paint0_linear)"/>
</g>
<g filter="url(#filter2_i)">
<path fill-rule="evenodd" clip-rule="evenodd" d="M5.31181 24.9998C4.10248 24.6253 1.3167 23.35 0.0929565 22.7499L0.15575 23.7759L0.236926 24.8197C0.452881 26.476 0.797681 27.3021 1.07665 28.5497C1.43246 30.1412 3.47623 33.9295 4.98791 35.91C6.32221 37.658 8.50669 39.4398 10.7252 40.8825C12.6298 42.1213 18.6429 44.0928 22.7807 43.9813C26.6736 43.8767 30.7223 42.5714 35.3293 39.4387C39.9364 36.306 42.0359 31.2928 42.7058 29.4502C43.3282 27.7381 43.8778 25.0112 43.9406 23.6921L37.5968 21.0749L34.9694 20.0308C32.0539 18.9146 29.6281 18.0649 28.1308 17.6904C26.2592 17.2222 24.1717 17.1502 22.8759 17.2942C21.8394 17.4094 20.4285 18.2304 19.8527 18.6264C19.4328 18.9746 18.3482 19.93 17.3692 20.967C16.1454 22.2632 14.5258 23.7395 12.2943 24.7838C10.0628 25.8279 6.82348 25.4678 5.31181 24.9998Z" fill="#56A4D2" fill-opacity="0.5"/>
<path fill-rule="evenodd" clip-rule="evenodd" d="M5.31181 24.9998C4.10248 24.6253 1.3167 23.35 0.0929565 22.7499L0.15575 23.7759L0.236926 24.8197C0.452881 26.476 0.797681 27.3021 1.07665 28.5497C1.43246 30.1412 3.47623 33.9295 4.98791 35.91C6.32221 37.658 8.50669 39.4398 10.7252 40.8825C12.6298 42.1213 18.6429 44.0928 22.7807 43.9813C26.6736 43.8767 30.7223 42.5714 35.3293 39.4387C39.9364 36.306 42.0359 31.2928 42.7058 29.4502C43.3282 27.7381 43.8778 25.0112 43.9406 23.6921L37.5968 21.0749L34.9694 20.0308C32.0539 18.9146 29.6281 18.0649 28.1308 17.6904C26.2592 17.2222 24.1717 17.1502 22.8759 17.2942C21.8394 17.4094 20.4285 18.2304 19.8527 18.6264C19.4328 18.9746 18.3482 19.93 17.3692 20.967C16.1454 22.2632 14.5258 23.7395 12.2943 24.7838C10.0628 25.8279 6.82348 25.4678 5.31181 24.9998Z" fill="url(#paint1_linear)" fill-opacity="0.7"/>
</g>
<g filter="url(#filter3_d)">
<path fill-rule="evenodd" clip-rule="evenodd" d="M8.50266 24.8105C4.00329 24.4947 1.14795 24.9421 0.282684 25.2052C0.37883 25.7436 0.626065 27.1453 1.03074 28.4713C1.5339 30.1199 2.97586 33.2119 4.21241 34.7512C5.44893 36.2903 5.90136 37.3033 9.31181 39.8238C13.4628 42.8915 19.1652 44.0004 24.113 43.7679C27.9345 43.5884 32.2252 41.426 33.8475 40.3854C35.47 39.3447 38.616 36.9741 41.0314 33.0623C43.5052 29.0562 43.9309 24.4832 43.9874 23.6924C44.0294 23.1081 44.0713 21.1674 43.9874 20.2909C43.4947 20.2789 42.145 20.2308 40.6254 20.4682C38.7867 20.7553 37.561 21.6166 36.6236 22.1907C35.6863 22.7649 34.0279 23.7697 30.9994 25.2052C27.971 26.6407 23.2841 26.5689 20.0755 26.3178C16.8669 26.0665 14.1268 25.2052 8.50266 24.8105Z" fill="#1670A4" fill-opacity="0.5"/>
<path fill-rule="evenodd" clip-rule="evenodd" d="M8.50266 24.8105C4.00329 24.4947 1.14795 24.9421 0.282684 25.2052C0.37883 25.7436 0.626065 27.1453 1.03074 28.4713C1.5339 30.1199 2.97586 33.2119 4.21241 34.7512C5.44893 36.2903 5.90136 37.3033 9.31181 39.8238C13.4628 42.8915 19.1652 44.0004 24.113 43.7679C27.9345 43.5884 32.2252 41.426 33.8475 40.3854C35.47 39.3447 38.616 36.9741 41.0314 33.0623C43.5052 29.0562 43.9309 24.4832 43.9874 23.6924C44.0294 23.1081 44.0713 21.1674 43.9874 20.2909C43.4947 20.2789 42.145 20.2308 40.6254 20.4682C38.7867 20.7553 37.561 21.6166 36.6236 22.1907C35.6863 22.7649 34.0279 23.7697 30.9994 25.2052C27.971 26.6407 23.2841 26.5689 20.0755 26.3178C16.8669 26.0665 14.1268 25.2052 8.50266 24.8105Z" fill="url(#paint2_linear)" fill-opacity="0.4"/>
</g>
<g filter="url(#filter4_di)">
<path fill-rule="evenodd" clip-rule="evenodd" d="M7.41982 22.9268C5.01619 23.8217 1.7222 25.1212 0.424957 25.987C0.70123 26.9855 1.03264 28.9478 1.84985 30.6662C2.63875 32.3253 4.57392 36.6465 9.22157 39.8861C13.5099 42.8755 19.7945 44.3875 24.5224 43.8226C29.5377 43.2233 33.1138 41.2207 36.257 38.7448C38.7715 36.7639 40.7203 33.6668 41.5794 32.0722C40.126 31.9519 36.5719 31.5002 33.8332 30.7208C30.41 29.7466 27.419 27.8342 25.6895 26.8239C23.9597 25.8135 20.4284 23.5763 17.1132 22.6741C13.798 21.7721 10.2305 21.8803 7.41982 22.9268Z" fill="#002F5C" fill-opacity="0.6"/>
<path fill-rule="evenodd" clip-rule="evenodd" d="M7.41982 22.9268C5.01619 23.8217 1.7222 25.1212 0.424957 25.987C0.70123 26.9855 1.03264 28.9478 1.84985 30.6662C2.63875 32.3253 4.57392 36.6465 9.22157 39.8861C13.5099 42.8755 19.7945 44.3875 24.5224 43.8226C29.5377 43.2233 33.1138 41.2207 36.257 38.7448C38.7715 36.7639 40.7203 33.6668 41.5794 32.0722C40.126 31.9519 36.5719 31.5002 33.8332 30.7208C30.41 29.7466 27.419 27.8342 25.6895 26.8239C23.9597 25.8135 20.4284 23.5763 17.1132 22.6741C13.798 21.7721 10.2305 21.8803 7.41982 22.9268Z" fill="url(#paint3_linear)"/>
</g>
<defs>
<filter id="filter0_i" x="0.0474548" y="0" width="44.1672" height="44.1174" filterUnits="userSpaceOnUse" color-interpolation-filters="sRGB">
<feFlood flood-opacity="0" result="BackgroundImageFix"/>
<feBlend mode="normal" in="SourceGraphic" in2="BackgroundImageFix" result="shape"/>
<feColorMatrix in="SourceAlpha" type="matrix" values="0 0 0 0 0 0 0 0 0 0 0 0 0 0 0 0 0 0 127 0" result="hardAlpha"/>
<feOffset dx="0.177799" dy="0.177799"/>
<feGaussianBlur stdDeviation="0.0888993"/>
<feComposite in2="hardAlpha" operator="arithmetic" k2="-1" k3="1"/>
<feColorMatrix type="matrix" values="0 0 0 0 0.852222 0 0 0 0 0.858241 0 0 0 0 0.866667 0 0 0 1 0"/>
<feBlend mode="normal" in2="shape" result="effect1_innerShadow"/>
</filter>
<filter id="filter1_d" x="-0.886567" y="8.54925" width="45.4559" height="36.6794" filterUnits="userSpaceOnUse" color-interpolation-filters="sRGB">
<feFlood flood-opacity="0" result="BackgroundImageFix"/>
<feColorMatrix in="SourceAlpha" type="matrix" values="0 0 0 0 0 0 0 0 0 0 0 0 0 0 0 0 0 0 127 0"/>
<feOffset dx="0.177799" dy="0.177799"/>
<feGaussianBlur stdDeviation="0.55562"/>
<feColorMatrix type="matrix" values="0 0 0 0 0.8125 0 0 0 0 0.8125 0 0 0 0 0.8125 0 0 0 0.5 0"/>
<feBlend mode="normal" in2="BackgroundImageFix" result="effect1_dropShadow"/>
<feBlend mode="normal" in="SourceGraphic" in2="effect1_dropShadow" result="shape"/>
</filter>
<filter id="filter2_i" x="0.0929565" y="17.2278" width="43.8921" height="26.8025" filterUnits="userSpaceOnUse" color-interpolation-filters="sRGB">
<feFlood flood-opacity="0" result="BackgroundImageFix"/>
<feBlend mode="normal" in="SourceGraphic" in2="BackgroundImageFix" result="shape"/>
<feColorMatrix in="SourceAlpha" type="matrix" values="0 0 0 0 0 0 0 0 0 0 0 0 0 0 0 0 0 0 127 0" result="hardAlpha"/>
<feOffset dx="0.0444496" dy="0.0444496"/>
<feGaussianBlur stdDeviation="0.0444496"/>
<feComposite in2="hardAlpha" operator="arithmetic" k2="-1" k3="1"/>
<feColorMatrix type="matrix" values="0 0 0 0 0.556233 0 0 0 0 0.725021 0 0 0 0 0.829167 0 0 0 1 0"/>
<feBlend mode="normal" in2="shape" result="effect1_innerShadow"/>
</filter>
<filter id="filter3_d" x="0.282684" y="20.2788" width="44.1088" height="23.8745" filterUnits="userSpaceOnUse" color-interpolation-filters="sRGB">
<feFlood flood-opacity="0" result="BackgroundImageFix"/>
<feColorMatrix in="SourceAlpha" type="matrix" values="0 0 0 0 0 0 0 0 0 0 0 0 0 0 0 0 0 0 127 0"/>
<feOffset dx="0.177799" dy="0.177799"/>
<feGaussianBlur stdDeviation="0.0888993"/>
<feColorMatrix type="matrix" values="0 0 0 0 0 0 0 0 0 0 0 0 0 0 0 0 0 0 0.25 0"/>
<feBlend mode="normal" in2="BackgroundImageFix" result="effect1_dropShadow"/>
<feBlend mode="normal" in="SourceGraphic" in2="effect1_dropShadow" result="shape"/>
</filter>
<filter id="filter4_di" x="0.336058" y="21.9746" width="41.4211" height="22.1426" filterUnits="userSpaceOnUse" color-interpolation-filters="sRGB">
<feFlood flood-opacity="0" result="BackgroundImageFix"/>
<feColorMatrix in="SourceAlpha" type="matrix" values="0 0 0 0 0 0 0 0 0 0 0 0 0 0 0 0 0 0 127 0"/>
<feOffset dx="0.0888993" dy="0.0888993"/>
<feGaussianBlur stdDeviation="0.0444496"/>
<feColorMatrix type="matrix" values="0 0 0 0 0 0 0 0 0 0.133843 0 0 0 0 0.245833 0 0 0 0.5 0"/>
<feBlend mode="normal" in2="BackgroundImageFix" result="effect1_dropShadow"/>
<feBlend mode="normal" in="SourceGraphic" in2="effect1_dropShadow" result="shape"/>
<feColorMatrix in="SourceAlpha" type="matrix" values="0 0 0 0 0 0 0 0 0 0 0 0 0 0 0 0 0 0 127 0" result="hardAlpha"/>
<feOffset dx="-0.0888993" dy="-0.0888993"/>
<feGaussianBlur stdDeviation="0.666744"/>
<feComposite in2="hardAlpha" operator="arithmetic" k2="-1" k3="1"/>
<feColorMatrix type="matrix" values="0 0 0 0 0 0 0 0 0 0 0 0 0 0 0 0 0 0 0.4 0"/>
<feBlend mode="normal" in2="shape" result="effect2_innerShadow"/>
</filter>
<linearGradient id="paint0_linear" x1="23.7898" y1="12.2524" x2="64.0595" y2="22.9437" gradientUnits="userSpaceOnUse">
<stop stop-color="#D5EEFF"/>
<stop offset="1" stop-color="#6DBFFA"/>
</linearGradient>
<linearGradient id="paint1_linear" x1="28.4191" y1="26.3584" x2="17.3214" y2="14.5036" gradientUnits="userSpaceOnUse">
<stop stop-color="#599AC1"/>
<stop offset="1" stop-color="#EEF8FF" stop-opacity="0"/>
</linearGradient>
<linearGradient id="paint2_linear" x1="41.8624" y1="22.5556" x2="7.02588" y2="50.3318" gradientUnits="userSpaceOnUse">
<stop stop-color="#3184B5"/>
<stop offset="1" stop-color="white" stop-opacity="0"/>
</linearGradient>
<linearGradient id="paint3_linear" x1="18.5924" y1="46.5917" x2="10.5122" y2="23.439" gradientUnits="userSpaceOnUse">
<stop stop-color="#002134"/>
<stop offset="1" stop-color="#00395A" stop-opacity="0"/>
</linearGradient>
</defs>
</svg>
