<svg width="65" height="96" viewBox="0 0 65 96" fill="none" xmlns="http://www.w3.org/2000/svg">
<g filter="url(#filter0_d)">
<path d="M5.87104 0.681885H14.0382C14.0382 0.681885 12.3196 5.29804 11.0641 9.4922C9.80859 13.6864 11.0641 16.6321 11.0641 16.6321C13.7005 21.5566 20.5926 19.4397 25.9221 16.6321C25.9221 16.6321 31.4298 13.407 35.8051 12.18C40.1804 10.9531 44.564 11.4138 44.564 11.4138C60.5733 11.7795 61.782 24.6639 60.1673 29.8523C58.1538 36.3219 52.7942 41.9492 38.004 40.9453L22.2233 40.0621C16.0284 40.0621 16.3367 46.8988 22.2233 47.5696C22.2233 47.5696 29.2134 48.9076 33.7489 49.2479C38.6208 49.6135 46.2588 49.2479 46.2588 49.2479C64.8436 51.5819 59.3749 72.6456 42.2174 72.6456C35.2536 73.3945 35.8294 83.1668 35.8294 85.6647V91.0378H28.4072C28.4072 91.0378 27.991 86.925 27.991 83.9072C27.991 80.7026 28.7982 75.2559 28.7982 75.2559C29.6423 68.5927 35.2829 66.1358 42.2174 65.9425C42.2174 65.9425 47.3928 65.9425 47.5261 60.97C47.6546 56.1803 42.2174 56.3305 42.2174 56.3305C32.4053 56.881 28.5602 57.2268 14.6022 54.3179C6.98427 52.7303 3.59084 36.9288 15.8831 33.9446C26.536 31.9296 37.1393 32.4314 43.7818 32.174C51.477 31.8758 55.2853 21.128 44.564 20.2854C38.8836 19.9525 34.8253 20.9073 29.311 23.8267C25.6465 25.7667 17.1359 29.9314 10.1428 26.4068C10.1428 26.4068 4.92045 24.2357 2.80584 18.8215C0.691226 13.4073 5.87104 0.681885 5.87104 0.681885Z" fill="white"/>
</g>
<defs>
<filter id="filter0_d" x="0.876271" y="-0.740368" width="64.092" height="96.045" filterUnits="userSpaceOnUse" color-interpolation-filters="sRGB">
<feFlood flood-opacity="0" result="BackgroundImageFix"/>
<feColorMatrix in="SourceAlpha" type="matrix" values="0 0 0 0 0 0 0 0 0 0 0 0 0 0 0 0 0 0 127 0"/>
<feOffset dx="1.42225" dy="1.42225"/>
<feGaussianBlur stdDeviation="1.42225"/>
<feColorMatrix type="matrix" values="0 0 0 0 0.4375 0 0 0 0 0.340625 0 0 0 0 0 0 0 0 0.51 0"/>
<feBlend mode="normal" in2="BackgroundImageFix" result="effect1_dropShadow"/>
<feBlend mode="normal" in="SourceGraphic" in2="effect1_dropShadow" result="shape"/>
</filter>
</defs>
</svg>
